solid PCAP_SVP_C6
facet normal 0 0 1
  outer loop
    vertex 0 0 238
    vertex -127.3 0 238
    vertex -124.853966195331 -24.8349979926531 238
  endloop
endfacet
facet normal 0 0 1
  outer loop
    vertex 0 0 238
    vertex -124.853966195331 -24.8349979926531 238
    vertex -117.609864488687 -48.7156009400759 238
  endloop
endfacet
facet normal 0 0 1
  outer loop
    vertex 0 0 238
    vertex -117.609864488687 -48.7156009400759 238
    vertex -105.846081646114 -70.7240906633954 238
  endloop
endfacet
facet normal 0 0 1
  outer loop
    vertex 0 0 238
    vertex -105.846081646114 -70.7240906633954 238
    vertex -90.0146932450475 -90.0146932450475 238
  endloop
endfacet
facet normal 0 0 1
  outer loop
    vertex 0 0 238
    vertex -90.0146932450475 -90.0146932450475 238
    vertex -70.7240906633954 -105.846081646114 238
  endloop
endfacet
facet normal 0 0 1
  outer loop
    vertex 0 0 238
    vertex -70.7240906633954 -105.846081646114 238
    vertex -48.7156009400759 -117.609864488687 238
  endloop
endfacet
facet normal 0 0 1
  outer loop
    vertex 0 0 238
    vertex -48.7156009400759 -117.609864488687 238
    vertex -24.8349979926531 -124.853966195331 238
  endloop
endfacet
facet normal 0 0 1
  outer loop
    vertex 0 0 238
    vertex -24.8349979926531 -124.853966195331 238
    vertex -7.7948768765729E-15 -127.3 238
  endloop
endfacet
facet normal 0 0 1
  outer loop
    vertex 0 0 238
    vertex -7.7948768765729E-15 -127.3 238
    vertex 24.8349979926531 -124.853966195331 238
  endloop
endfacet
facet normal 0 0 1
  outer loop
    vertex 0 0 238
    vertex 24.8349979926531 -124.853966195331 238
    vertex 48.7156009400759 -117.609864488687 238
  endloop
endfacet
facet normal 0 0 1
  outer loop
    vertex 0 0 238
    vertex 48.7156009400759 -117.609864488687 238
    vertex 70.7240906633954 -105.846081646114 238
  endloop
endfacet
facet normal 0 0 1
  outer loop
    vertex 0 0 238
    vertex 70.7240906633954 -105.846081646114 238
    vertex 90.0146932450475 -90.0146932450475 238
  endloop
endfacet
facet normal 0 0 1
  outer loop
    vertex 0 0 238
    vertex 90.0146932450475 -90.0146932450475 238
    vertex 105.846081646114 -70.7240906633954 238
  endloop
endfacet
facet normal 0 0 1
  outer loop
    vertex 0 0 238
    vertex 105.846081646114 -70.7240906633954 238
    vertex 117.609864488687 -48.7156009400759 238
  endloop
endfacet
facet normal 0 0 1
  outer loop
    vertex 0 0 238
    vertex 117.609864488687 -48.7156009400759 238
    vertex 124.853966195331 -24.8349979926531 238
  endloop
endfacet
facet normal 0 0 1
  outer loop
    vertex 0 0 238
    vertex 124.853966195331 -24.8349979926531 238
    vertex 127.3 0 238
  endloop
endfacet
facet normal 0 0 1
  outer loop
    vertex 0 0 238
    vertex 127.3 0 238
    vertex 124.853966195331 24.8349979926531 238
  endloop
endfacet
facet normal 0 0 1
  outer loop
    vertex 0 0 238
    vertex 124.853966195331 24.8349979926531 238
    vertex 117.609864488687 48.7156009400759 238
  endloop
endfacet
facet normal 0 0 1
  outer loop
    vertex 0 0 238
    vertex 117.609864488687 48.7156009400759 238
    vertex 105.846081646114 70.7240906633954 238
  endloop
endfacet
facet normal 0 0 1
  outer loop
    vertex 0 0 238
    vertex 105.846081646114 70.7240906633954 238
    vertex 90.0146932450475 90.0146932450475 238
  endloop
endfacet
facet normal 0 0 1
  outer loop
    vertex 0 0 238
    vertex 90.0146932450475 90.0146932450475 238
    vertex 70.7240906633954 105.846081646114 238
  endloop
endfacet
facet normal 0 0 1
  outer loop
    vertex 0 0 238
    vertex 70.7240906633954 105.846081646114 238
    vertex 48.7156009400759 117.609864488687 238
  endloop
endfacet
facet normal 0 0 1
  outer loop
    vertex 0 0 238
    vertex 48.7156009400759 117.609864488687 238
    vertex 24.8349979926531 124.853966195331 238
  endloop
endfacet
facet normal 0 0 1
  outer loop
    vertex 0 0 238
    vertex 24.8349979926531 124.853966195331 238
    vertex 7.7948768765729E-15 127.3 238
  endloop
endfacet
facet normal 0 0 1
  outer loop
    vertex 0 0 238
    vertex 7.7948768765729E-15 127.3 238
    vertex -24.8349979926531 124.853966195331 238
  endloop
endfacet
facet normal 0 0 1
  outer loop
    vertex 0 0 238
    vertex -24.8349979926531 124.853966195331 238
    vertex -48.7156009400759 117.609864488687 238
  endloop
endfacet
facet normal 0 0 1
  outer loop
    vertex 0 0 238
    vertex -48.7156009400759 117.609864488687 238
    vertex -70.7240906633954 105.846081646114 238
  endloop
endfacet
facet normal 0 0 1
  outer loop
    vertex 0 0 238
    vertex -70.7240906633954 105.846081646114 238
    vertex -90.0146932450475 90.0146932450475 238
  endloop
endfacet
facet normal 0 0 1
  outer loop
    vertex 0 0 238
    vertex -90.0146932450475 90.0146932450475 238
    vertex -105.846081646114 70.7240906633954 238
  endloop
endfacet
facet normal 0 0 1
  outer loop
    vertex 0 0 238
    vertex -105.846081646114 70.7240906633954 238
    vertex -117.609864488687 48.7156009400759 238
  endloop
endfacet
facet normal 0 0 1
  outer loop
    vertex 0 0 238
    vertex -117.609864488687 48.7156009400759 238
    vertex -124.853966195331 24.8349979926531 238
  endloop
endfacet
facet normal 0 0 1
  outer loop
    vertex 0 0 238
    vertex -124.853966195331 24.8349979926531 238
    vertex -127.3 0 238
  endloop
endfacet
facet normal -.995184726672196 -9.80171403295701E-02 0
  outer loop
    vertex -127.3 0 238
    vertex -124.853966195331 -24.8349979926531 25.61
    vertex -124.853966195331 -24.8349979926531 238
  endloop
endfacet
facet normal -.995184726672196 -9.80171403295701E-02 0
  outer loop
    vertex -127.3 0 238
    vertex -127.3 0 25.61
    vertex -124.853966195331 -24.8349979926531 25.61
  endloop
endfacet
facet normal -.956940335732214 -.290284677254447 0
  outer loop
    vertex -124.853966195331 -24.8349979926531 238
    vertex -117.609864488687 -48.7156009400759 25.61
    vertex -117.609864488687 -48.7156009400759 238
  endloop
endfacet
facet normal -.956940335732214 -.290284677254447 0
  outer loop
    vertex -124.853966195331 -24.8349979926531 238
    vertex -124.853966195331 -24.8349979926531 25.61
    vertex -117.609864488687 -48.7156009400759 25.61
  endloop
endfacet
facet normal -.881921264348352 -.471396736826003 0
  outer loop
    vertex -117.609864488687 -48.7156009400759 238
    vertex -105.846081646114 -70.7240906633954 49.2
    vertex -105.846081646114 -70.7240906633954 238
  endloop
endfacet
facet normal -.881921264348352 -.471396736826003 0
  outer loop
    vertex -117.609864488687 -48.7156009400759 238
    vertex -117.609864488687 -48.7156009400759 49.2
    vertex -105.846081646114 -70.7240906633954 49.2
  endloop
endfacet
facet normal -.773010453362736 -.634393284163646 0
  outer loop
    vertex -105.846081646114 -70.7240906633954 238
    vertex -90.0146932450475 -90.0146932450475 49.2
    vertex -90.0146932450475 -90.0146932450475 238
  endloop
endfacet
facet normal -.773010453362736 -.634393284163646 0
  outer loop
    vertex -105.846081646114 -70.7240906633954 238
    vertex -105.846081646114 -70.7240906633954 49.2
    vertex -90.0146932450475 -90.0146932450475 49.2
  endloop
endfacet
facet normal -.634393284163646 -.773010453362736 0
  outer loop
    vertex -90.0146932450475 -90.0146932450475 238
    vertex -70.7240906633954 -105.846081646114 49.2
    vertex -70.7240906633954 -105.846081646114 238
  endloop
endfacet
facet normal -.634393284163646 -.773010453362736 0
  outer loop
    vertex -90.0146932450475 -90.0146932450475 238
    vertex -90.0146932450475 -90.0146932450475 49.2
    vertex -70.7240906633954 -105.846081646114 49.2
  endloop
endfacet
facet normal -.471396736826003 -.881921264348352 0
  outer loop
    vertex -70.7240906633954 -105.846081646114 238
    vertex -48.7156009400759 -117.609864488687 49.2
    vertex -48.7156009400759 -117.609864488687 238
  endloop
endfacet
facet normal -.471396736826003 -.881921264348352 0
  outer loop
    vertex -70.7240906633954 -105.846081646114 238
    vertex -70.7240906633954 -105.846081646114 49.2
    vertex -48.7156009400759 -117.609864488687 49.2
  endloop
endfacet
facet normal -.290284677254447 -.956940335732214 0
  outer loop
    vertex -48.7156009400759 -117.609864488687 238
    vertex -24.8349979926531 -124.853966195331 25.61
    vertex -24.8349979926531 -124.853966195331 238
  endloop
endfacet
facet normal -.290284677254447 -.956940335732214 0
  outer loop
    vertex -48.7156009400759 -117.609864488687 238
    vertex -48.7156009400759 -117.609864488687 25.61
    vertex -24.8349979926531 -124.853966195331 25.61
  endloop
endfacet
facet normal -9.80171403295701E-02 -.995184726672196 0
  outer loop
    vertex -24.8349979926531 -124.853966195331 238
    vertex -7.7948768765729E-15 -127.3 25.61
    vertex -7.7948768765729E-15 -127.3 238
  endloop
endfacet
facet normal -9.80171403295701E-02 -.995184726672196 0
  outer loop
    vertex -24.8349979926531 -124.853966195331 238
    vertex -24.8349979926531 -124.853966195331 25.61
    vertex -7.7948768765729E-15 -127.3 25.61
  endloop
endfacet
facet normal .09801714032957 -.995184726672196 0
  outer loop
    vertex -7.7948768765729E-15 -127.3 238
    vertex 24.8349979926531 -124.853966195331 25.61
    vertex 24.8349979926531 -124.853966195331 238
  endloop
endfacet
facet normal .09801714032957 -.995184726672196 0
  outer loop
    vertex -7.7948768765729E-15 -127.3 238
    vertex -7.7948768765729E-15 -127.3 25.61
    vertex 24.8349979926531 -124.853966195331 25.61
  endloop
endfacet
facet normal .290284677254447 -.956940335732214 0
  outer loop
    vertex 24.8349979926531 -124.853966195331 238
    vertex 48.7156009400759 -117.609864488687 25.61
    vertex 48.7156009400759 -117.609864488687 238
  endloop
endfacet
facet normal .290284677254447 -.956940335732214 0
  outer loop
    vertex 24.8349979926531 -124.853966195331 238
    vertex 24.8349979926531 -124.853966195331 25.61
    vertex 48.7156009400759 -117.609864488687 25.61
  endloop
endfacet
facet normal .471396736826003 -.881921264348352 0
  outer loop
    vertex 48.7156009400759 -117.609864488687 238
    vertex 70.7240906633954 -105.846081646114 49.2
    vertex 70.7240906633954 -105.846081646114 238
  endloop
endfacet
facet normal .471396736826003 -.881921264348352 0
  outer loop
    vertex 48.7156009400759 -117.609864488687 238
    vertex 48.7156009400759 -117.609864488687 49.2
    vertex 70.7240906633954 -105.846081646114 49.2
  endloop
endfacet
facet normal .634393284163646 -.773010453362736 0
  outer loop
    vertex 70.7240906633954 -105.846081646114 238
    vertex 90.0146932450475 -90.0146932450475 49.2
    vertex 90.0146932450475 -90.0146932450475 238
  endloop
endfacet
facet normal .634393284163646 -.773010453362736 0
  outer loop
    vertex 70.7240906633954 -105.846081646114 238
    vertex 70.7240906633954 -105.846081646114 49.2
    vertex 90.0146932450475 -90.0146932450475 49.2
  endloop
endfacet
facet normal .773010453362736 -.634393284163646 0
  outer loop
    vertex 90.0146932450475 -90.0146932450475 238
    vertex 105.846081646114 -70.7240906633954 49.2
    vertex 105.846081646114 -70.7240906633954 238
  endloop
endfacet
facet normal .773010453362736 -.634393284163646 0
  outer loop
    vertex 90.0146932450475 -90.0146932450475 238
    vertex 90.0146932450475 -90.0146932450475 49.2
    vertex 105.846081646114 -70.7240906633954 49.2
  endloop
endfacet
facet normal .881921264348352 -.471396736826003 0
  outer loop
    vertex 105.846081646114 -70.7240906633954 238
    vertex 117.609864488687 -48.7156009400759 49.2
    vertex 117.609864488687 -48.7156009400759 238
  endloop
endfacet
facet normal .881921264348352 -.471396736826003 0
  outer loop
    vertex 105.846081646114 -70.7240906633954 238
    vertex 105.846081646114 -70.7240906633954 49.2
    vertex 117.609864488687 -48.7156009400759 49.2
  endloop
endfacet
facet normal .956940335732214 -.290284677254447 0
  outer loop
    vertex 117.609864488687 -48.7156009400759 238
    vertex 124.853966195331 -24.8349979926531 25.61
    vertex 124.853966195331 -24.8349979926531 238
  endloop
endfacet
facet normal .956940335732214 -.290284677254447 0
  outer loop
    vertex 117.609864488687 -48.7156009400759 238
    vertex 117.609864488687 -48.7156009400759 25.61
    vertex 124.853966195331 -24.8349979926531 25.61
  endloop
endfacet
facet normal .995184726672196 -9.80171403295701E-02 0
  outer loop
    vertex 124.853966195331 -24.8349979926531 238
    vertex 127.3 0 25.61
    vertex 127.3 0 238
  endloop
endfacet
facet normal .995184726672196 -9.80171403295701E-02 0
  outer loop
    vertex 124.853966195331 -24.8349979926531 238
    vertex 124.853966195331 -24.8349979926531 25.61
    vertex 127.3 0 25.61
  endloop
endfacet
facet normal .995184726672196 9.80171403295701E-02 0
  outer loop
    vertex 127.3 0 238
    vertex 124.853966195331 24.8349979926531 25.61
    vertex 124.853966195331 24.8349979926531 238
  endloop
endfacet
facet normal .995184726672196 9.80171403295701E-02 0
  outer loop
    vertex 127.3 0 238
    vertex 127.3 0 25.61
    vertex 124.853966195331 24.8349979926531 25.61
  endloop
endfacet
facet normal .956940335732214 .290284677254447 0
  outer loop
    vertex 124.853966195331 24.8349979926531 238
    vertex 117.609864488687 48.7156009400759 25.61
    vertex 117.609864488687 48.7156009400759 238
  endloop
endfacet
facet normal .956940335732214 .290284677254447 0
  outer loop
    vertex 124.853966195331 24.8349979926531 238
    vertex 124.853966195331 24.8349979926531 25.61
    vertex 117.609864488687 48.7156009400759 25.61
  endloop
endfacet
facet normal .881921264348352 .471396736826003 0
  outer loop
    vertex 117.609864488687 48.7156009400759 238
    vertex 105.846081646114 70.7240906633954 49.2
    vertex 105.846081646114 70.7240906633954 238
  endloop
endfacet
facet normal .881921264348352 .471396736826003 0
  outer loop
    vertex 117.609864488687 48.7156009400759 238
    vertex 117.609864488687 48.7156009400759 49.2
    vertex 105.846081646114 70.7240906633954 49.2
  endloop
endfacet
facet normal .773010453362736 .634393284163646 0
  outer loop
    vertex 105.846081646114 70.7240906633954 238
    vertex 90.0146932450475 90.0146932450475 49.2
    vertex 90.0146932450475 90.0146932450475 238
  endloop
endfacet
facet normal .773010453362736 .634393284163646 0
  outer loop
    vertex 105.846081646114 70.7240906633954 238
    vertex 105.846081646114 70.7240906633954 49.2
    vertex 90.0146932450475 90.0146932450475 49.2
  endloop
endfacet
facet normal .634393284163646 .773010453362736 0
  outer loop
    vertex 90.0146932450475 90.0146932450475 238
    vertex 70.7240906633954 105.846081646114 49.2
    vertex 70.7240906633954 105.846081646114 238
  endloop
endfacet
facet normal .634393284163646 .773010453362736 0
  outer loop
    vertex 90.0146932450475 90.0146932450475 238
    vertex 90.0146932450475 90.0146932450475 49.2
    vertex 70.7240906633954 105.846081646114 49.2
  endloop
endfacet
facet normal .471396736826003 .881921264348352 0
  outer loop
    vertex 70.7240906633954 105.846081646114 238
    vertex 48.7156009400759 117.609864488687 49.2
    vertex 48.7156009400759 117.609864488687 238
  endloop
endfacet
facet normal .471396736826003 .881921264348352 0
  outer loop
    vertex 70.7240906633954 105.846081646114 238
    vertex 70.7240906633954 105.846081646114 49.2
    vertex 48.7156009400759 117.609864488687 49.2
  endloop
endfacet
facet normal .290284677254447 .956940335732214 0
  outer loop
    vertex 48.7156009400759 117.609864488687 238
    vertex 24.8349979926531 124.853966195331 25.61
    vertex 24.8349979926531 124.853966195331 238
  endloop
endfacet
facet normal .290284677254447 .956940335732214 0
  outer loop
    vertex 48.7156009400759 117.609864488687 238
    vertex 48.7156009400759 117.609864488687 25.61
    vertex 24.8349979926531 124.853966195331 25.61
  endloop
endfacet
facet normal 9.80171403295701E-02 .995184726672196 0
  outer loop
    vertex 24.8349979926531 124.853966195331 238
    vertex 7.7948768765729E-15 127.3 25.61
    vertex 7.7948768765729E-15 127.3 238
  endloop
endfacet
facet normal 9.80171403295701E-02 .995184726672196 0
  outer loop
    vertex 24.8349979926531 124.853966195331 238
    vertex 24.8349979926531 124.853966195331 25.61
    vertex 7.7948768765729E-15 127.3 25.61
  endloop
endfacet
facet normal -.09801714032957 .995184726672196 0
  outer loop
    vertex 7.7948768765729E-15 127.3 238
    vertex -24.8349979926531 124.853966195331 25.61
    vertex -24.8349979926531 124.853966195331 238
  endloop
endfacet
facet normal -.09801714032957 .995184726672196 0
  outer loop
    vertex 7.7948768765729E-15 127.3 238
    vertex 7.7948768765729E-15 127.3 25.61
    vertex -24.8349979926531 124.853966195331 25.61
  endloop
endfacet
facet normal -.290284677254447 .956940335732214 0
  outer loop
    vertex -24.8349979926531 124.853966195331 238
    vertex -48.7156009400759 117.609864488687 25.61
    vertex -48.7156009400759 117.609864488687 238
  endloop
endfacet
facet normal -.290284677254447 .956940335732214 0
  outer loop
    vertex -24.8349979926531 124.853966195331 238
    vertex -24.8349979926531 124.853966195331 25.61
    vertex -48.7156009400759 117.609864488687 25.61
  endloop
endfacet
facet normal -.471396736826003 .881921264348352 0
  outer loop
    vertex -48.7156009400759 117.609864488687 238
    vertex -70.7240906633954 105.846081646114 49.2
    vertex -70.7240906633954 105.846081646114 238
  endloop
endfacet
facet normal -.471396736826003 .881921264348352 0
  outer loop
    vertex -48.7156009400759 117.609864488687 238
    vertex -48.7156009400759 117.609864488687 49.2
    vertex -70.7240906633954 105.846081646114 49.2
  endloop
endfacet
facet normal -.634393284163646 .773010453362736 0
  outer loop
    vertex -70.7240906633954 105.846081646114 238
    vertex -90.0146932450475 90.0146932450475 49.2
    vertex -90.0146932450475 90.0146932450475 238
  endloop
endfacet
facet normal -.634393284163646 .773010453362736 0
  outer loop
    vertex -70.7240906633954 105.846081646114 238
    vertex -70.7240906633954 105.846081646114 49.2
    vertex -90.0146932450475 90.0146932450475 49.2
  endloop
endfacet
facet normal -.773010453362736 .634393284163646 0
  outer loop
    vertex -90.0146932450475 90.0146932450475 238
    vertex -105.846081646114 70.7240906633954 49.2
    vertex -105.846081646114 70.7240906633954 238
  endloop
endfacet
facet normal -.773010453362736 .634393284163646 0
  outer loop
    vertex -90.0146932450475 90.0146932450475 238
    vertex -90.0146932450475 90.0146932450475 49.2
    vertex -105.846081646114 70.7240906633954 49.2
  endloop
endfacet
facet normal -.881921264348352 .471396736826003 0
  outer loop
    vertex -105.846081646114 70.7240906633954 238
    vertex -117.609864488687 48.7156009400759 49.2
    vertex -117.609864488687 48.7156009400759 238
  endloop
endfacet
facet normal -.881921264348352 .471396736826003 0
  outer loop
    vertex -105.846081646114 70.7240906633954 238
    vertex -105.846081646114 70.7240906633954 49.2
    vertex -117.609864488687 48.7156009400759 49.2
  endloop
endfacet
facet normal -.956940335732214 .290284677254447 0
  outer loop
    vertex -117.609864488687 48.7156009400759 238
    vertex -124.853966195331 24.8349979926531 25.61
    vertex -124.853966195331 24.8349979926531 238
  endloop
endfacet
facet normal -.956940335732214 .290284677254447 0
  outer loop
    vertex -117.609864488687 48.7156009400759 238
    vertex -117.609864488687 48.7156009400759 25.61
    vertex -124.853966195331 24.8349979926531 25.61
  endloop
endfacet
facet normal -.995184726672196 9.80171403295701E-02 0
  outer loop
    vertex -124.853966195331 24.8349979926531 238
    vertex -127.3 0 25.61
    vertex -127.3 0 238
  endloop
endfacet
facet normal -.995184726672196 9.80171403295701E-02 0
  outer loop
    vertex -124.853966195331 24.8349979926531 238
    vertex -124.853966195331 24.8349979926531 25.61
    vertex -127.3 0 25.61
  endloop
endfacet
facet normal 0 0 1
  outer loop
    vertex -48.7156009400759 -134 49.2
    vertex -48.7156009400759 -117.609864488687 49.2
    vertex -91.357800470038 -134 49.2
  endloop
endfacet
facet normal 0 0 1
  outer loop
    vertex -91.357800470038 -134 49.2
    vertex -48.7156009400759 -117.609864488687 49.2
    vertex -70.7240906633954 -105.846081646114 49.2
  endloop
endfacet
facet normal 0 0 1
  outer loop
    vertex -91.357800470038 -134 49.2
    vertex -70.7240906633954 -105.846081646114 49.2
    vertex -90.0146932450475 -90.0146932450475 49.2
  endloop
endfacet
facet normal 0 0 1
  outer loop
    vertex -91.357800470038 -134 49.2
    vertex -90.0146932450475 -90.0146932450475 49.2
    vertex -134 -91.357800470038 49.2
  endloop
endfacet
facet normal 0 0 1
  outer loop
    vertex -134 -91.357800470038 49.2
    vertex -90.0146932450475 -90.0146932450475 49.2
    vertex -105.846081646114 -70.7240906633954 49.2
  endloop
endfacet
facet normal 0 0 1
  outer loop
    vertex -134 -91.357800470038 49.2
    vertex -105.846081646114 -70.7240906633954 49.2
    vertex -117.609864488687 -48.7156009400759 49.2
  endloop
endfacet
facet normal 0 0 1
  outer loop
    vertex -134 -91.357800470038 49.2
    vertex -117.609864488687 -48.7156009400759 49.2
    vertex -134 -48.7156009400759 49.2
  endloop
endfacet
facet normal 0 0 1
  outer loop
    vertex -134 48.7156009400759 49.2
    vertex -117.609864488687 48.7156009400759 49.2
    vertex -134 91.357800470038 49.2
  endloop
endfacet
facet normal 0 0 1
  outer loop
    vertex -134 91.357800470038 49.2
    vertex -117.609864488687 48.7156009400759 49.2
    vertex -105.846081646114 70.7240906633954 49.2
  endloop
endfacet
facet normal 0 0 1
  outer loop
    vertex -134 91.357800470038 49.2
    vertex -105.846081646114 70.7240906633954 49.2
    vertex -90.0146932450475 90.0146932450475 49.2
  endloop
endfacet
facet normal 0 0 1
  outer loop
    vertex -134 91.357800470038 49.2
    vertex -90.0146932450475 90.0146932450475 49.2
    vertex -91.357800470038 134 49.2
  endloop
endfacet
facet normal 0 0 1
  outer loop
    vertex -91.357800470038 134 49.2
    vertex -90.0146932450475 90.0146932450475 49.2
    vertex -70.7240906633954 105.846081646114 49.2
  endloop
endfacet
facet normal 0 0 1
  outer loop
    vertex -91.357800470038 134 49.2
    vertex -70.7240906633954 105.846081646114 49.2
    vertex -48.7156009400759 117.609864488687 49.2
  endloop
endfacet
facet normal 0 0 1
  outer loop
    vertex -91.357800470038 134 49.2
    vertex -48.7156009400759 117.609864488687 49.2
    vertex -48.7156009400759 134 49.2
  endloop
endfacet
facet normal 0 0 1
  outer loop
    vertex 134 134 49.2
    vertex 48.7156009400759 134 49.2
    vertex 48.7156009400759 117.609864488687 49.2
  endloop
endfacet
facet normal 0 0 1
  outer loop
    vertex 134 134 49.2
    vertex 48.7156009400759 117.609864488687 49.2
    vertex 70.7240906633954 105.846081646114 49.2
  endloop
endfacet
facet normal 0 0 1
  outer loop
    vertex 134 134 49.2
    vertex 70.7240906633954 105.846081646114 49.2
    vertex 90.0146932450475 90.0146932450475 49.2
  endloop
endfacet
facet normal 0 0 1
  outer loop
    vertex 134 134 49.2
    vertex 90.0146932450475 90.0146932450475 49.2
    vertex 105.846081646114 70.7240906633954 49.2
  endloop
endfacet
facet normal 0 0 1
  outer loop
    vertex 134 134 49.2
    vertex 105.846081646114 70.7240906633954 49.2
    vertex 117.609864488687 48.7156009400759 49.2
  endloop
endfacet
facet normal 0 0 1
  outer loop
    vertex 134 134 49.2
    vertex 117.609864488687 48.7156009400759 49.2
    vertex 134 48.7156009400759 49.2
  endloop
endfacet
facet normal 0 0 1
  outer loop
    vertex 134 -134 49.2
    vertex 134 -48.7156009400759 49.2
    vertex 117.609864488687 -48.7156009400759 49.2
  endloop
endfacet
facet normal 0 0 1
  outer loop
    vertex 134 -134 49.2
    vertex 117.609864488687 -48.7156009400759 49.2
    vertex 105.846081646114 -70.7240906633954 49.2
  endloop
endfacet
facet normal 0 0 1
  outer loop
    vertex 134 -134 49.2
    vertex 105.846081646114 -70.7240906633954 49.2
    vertex 90.0146932450475 -90.0146932450475 49.2
  endloop
endfacet
facet normal 0 0 1
  outer loop
    vertex 134 -134 49.2
    vertex 90.0146932450475 -90.0146932450475 49.2
    vertex 70.7240906633954 -105.846081646114 49.2
  endloop
endfacet
facet normal 0 0 1
  outer loop
    vertex 134 -134 49.2
    vertex 70.7240906633954 -105.846081646114 49.2
    vertex 48.7156009400759 -117.609864488687 49.2
  endloop
endfacet
facet normal 0 0 1
  outer loop
    vertex 134 -134 49.2
    vertex 48.7156009400759 -117.609864488687 49.2
    vertex 48.7156009400759 -134 49.2
  endloop
endfacet
facet normal 0 0 -1
  outer loop
    vertex 134 134 2
    vertex -134 91.357800470038 2
    vertex -91.357800470038 134 2
  endloop
endfacet
facet normal 0 0 -1
  outer loop
    vertex 134 134 2
    vertex -134 -91.357800470038 2
    vertex -134 91.357800470038 2
  endloop
endfacet
facet normal 0 0 -1
  outer loop
    vertex 134 134 2
    vertex -91.357800470038 -134 2
    vertex -134 -91.357800470038 2
  endloop
endfacet
facet normal 0 0 -1
  outer loop
    vertex 134 134 2
    vertex 134 -134 2
    vertex -91.357800470038 -134 2
  endloop
endfacet
facet normal -1 0 0
  outer loop
    vertex -134 91.357800470038 49.2
    vertex -134 91.357800470038 2
    vertex -134 48.7156009400759 49.2
  endloop
endfacet
facet normal -1 0 0
  outer loop
    vertex -134 48.7156009400759 49.2
    vertex -134 91.357800470038 2
    vertex -134 48.7156009400759 25.6
  endloop
endfacet
facet normal -1 0 0
  outer loop
    vertex -134 91.357800470038 2
    vertex -134 -48.7156009400759 25.6
    vertex -134 48.7156009400759 25.6
  endloop
endfacet
facet normal -1 0 0
  outer loop
    vertex -134 91.357800470038 2
    vertex -134 -91.357800470038 2
    vertex -134 -48.7156009400759 25.6
  endloop
endfacet
facet normal -1 0 0
  outer loop
    vertex -134 -91.357800470038 2
    vertex -134 -91.357800470038 49.2
    vertex -134 -48.7156009400759 25.6
  endloop
endfacet
facet normal -1 0 0
  outer loop
    vertex -134 -48.7156009400759 49.2
    vertex -134 -48.7156009400759 25.6
    vertex -134 -91.357800470038 49.2
  endloop
endfacet
facet normal 0 1 0
  outer loop
    vertex 134 134 49.2
    vertex 134 134 2
    vertex 48.7156009400759 134 49.2
  endloop
endfacet
facet normal 0 1 0
  outer loop
    vertex 134 134 2
    vertex 48.7156009400759 134 25.6
    vertex 48.7156009400759 134 49.2
  endloop
endfacet
facet normal 0 1 0
  outer loop
    vertex 134 134 2
    vertex -48.7156009400759 134 25.6
    vertex 48.7156009400759 134 25.6
  endloop
endfacet
facet normal 0 1 0
  outer loop
    vertex 134 134 2
    vertex -91.357800470038 134 2
    vertex -48.7156009400759 134 25.6
  endloop
endfacet
facet normal 0 1 0
  outer loop
    vertex -91.357800470038 134 2
    vertex -91.357800470038 134 49.2
    vertex -48.7156009400759 134 25.6
  endloop
endfacet
facet normal 0 1 0
  outer loop
    vertex -48.7156009400759 134 49.2
    vertex -48.7156009400759 134 25.6
    vertex -91.357800470038 134 49.2
  endloop
endfacet
facet normal 1 0 0
  outer loop
    vertex 134 -134 49.2
    vertex 134 -134 2
    vertex 134 -48.7156009400759 49.2
  endloop
endfacet
facet normal 1 0 0
  outer loop
    vertex 134 -134 2
    vertex 134 -48.7156009400759 25.6
    vertex 134 -48.7156009400759 49.2
  endloop
endfacet
facet normal 1 0 0
  outer loop
    vertex 134 -134 2
    vertex 134 48.7156009400759 25.6
    vertex 134 -48.7156009400759 25.6
  endloop
endfacet
facet normal 1 0 0
  outer loop
    vertex 134 -134 2
    vertex 134 134 2
    vertex 134 48.7156009400759 25.6
  endloop
endfacet
facet normal 1 0 0
  outer loop
    vertex 134 134 2
    vertex 134 134 49.2
    vertex 134 48.7156009400759 25.6
  endloop
endfacet
facet normal 1 0 0
  outer loop
    vertex 134 48.7156009400759 49.2
    vertex 134 48.7156009400759 25.6
    vertex 134 134 49.2
  endloop
endfacet
facet normal 0 -1 0
  outer loop
    vertex -91.357800470038 -134 49.2
    vertex -91.357800470038 -134 2
    vertex -48.7156009400759 -134 49.2
  endloop
endfacet
facet normal 0 -1 0
  outer loop
    vertex -91.357800470038 -134 2
    vertex -48.7156009400759 -134 25.6
    vertex -48.7156009400759 -134 49.2
  endloop
endfacet
facet normal 0 -1 0
  outer loop
    vertex -91.357800470038 -134 2
    vertex 48.7156009400759 -134 25.6
    vertex -48.7156009400759 -134 25.6
  endloop
endfacet
facet normal 0 -1 0
  outer loop
    vertex -91.357800470038 -134 2
    vertex 134 -134 2
    vertex 48.7156009400759 -134 25.6
  endloop
endfacet
facet normal 0 -1 0
  outer loop
    vertex 134 -134 2
    vertex 134 -134 49.2
    vertex 48.7156009400759 -134 25.6
  endloop
endfacet
facet normal 0 -1 0
  outer loop
    vertex 48.7156009400759 -134 49.2
    vertex 48.7156009400759 -134 25.6
    vertex 134 -134 49.2
  endloop
endfacet
facet normal -.707106781186548 -.707106781186548 0
  outer loop
    vertex -134 -91.357800470038 49.2
    vertex -91.357800470038 -134 2
    vertex -91.357800470038 -134 49.2
  endloop
endfacet
facet normal -.707106781186548 -.707106781186548 0
  outer loop
    vertex -134 -91.357800470038 49.2
    vertex -134 -91.357800470038 2
    vertex -91.357800470038 -134 2
  endloop
endfacet
facet normal -.707106781186548 .707106781186548 0
  outer loop
    vertex -91.357800470038 134 49.2
    vertex -134 91.357800470038 2
    vertex -134 91.357800470038 49.2
  endloop
endfacet
facet normal -.707106781186548 .707106781186548 0
  outer loop
    vertex -91.357800470038 134 49.2
    vertex -91.357800470038 134 2
    vertex -134 91.357800470038 2
  endloop
endfacet
facet normal 0 1 0
  outer loop
    vertex -117.609864488687 -48.7156009400759 49.2
    vertex -117.609864488687 -48.7156009400759 25.61
    vertex -134 -48.7156009400759 49.2
  endloop
endfacet
facet normal 0 1 0
  outer loop
    vertex -117.609864488687 -48.7156009400759 25.61
    vertex -134 -48.7156009400759 25.6
    vertex -134 -48.7156009400759 49.2
  endloop
endfacet
facet normal 0 -1 0
  outer loop
    vertex -134 48.7156009400759 49.2
    vertex -117.609864488687 48.7156009400759 25.61
    vertex -117.609864488687 48.7156009400759 49.2
  endloop
endfacet
facet normal 0 -1 0
  outer loop
    vertex -117.609864488687 48.7156009400759 25.61
    vertex -134 48.7156009400759 49.2
    vertex -134 48.7156009400759 25.6
  endloop
endfacet
facet normal 1 0 0
  outer loop
    vertex -48.7156009400759 117.609864488687 49.2
    vertex -48.7156009400759 117.609864488687 25.61
    vertex -48.7156009400759 134 49.2
  endloop
endfacet
facet normal 1 0 0
  outer loop
    vertex -48.7156009400759 117.609864488687 25.61
    vertex -48.7156009400759 134 25.6
    vertex -48.7156009400759 134 49.2
  endloop
endfacet
facet normal -1 0 0
  outer loop
    vertex 48.7156009400759 134 49.2
    vertex 48.7156009400759 117.609864488687 25.61
    vertex 48.7156009400759 117.609864488687 49.2
  endloop
endfacet
facet normal -1 0 0
  outer loop
    vertex 48.7156009400759 117.609864488687 25.61
    vertex 48.7156009400759 134 49.2
    vertex 48.7156009400759 134 25.6
  endloop
endfacet
facet normal 0 -1 0
  outer loop
    vertex 117.609864488687 48.7156009400759 49.2
    vertex 117.609864488687 48.7156009400759 25.61
    vertex 134 48.7156009400759 49.2
  endloop
endfacet
facet normal 0 -1 0
  outer loop
    vertex 117.609864488687 48.7156009400759 25.61
    vertex 134 48.7156009400759 25.6
    vertex 134 48.7156009400759 49.2
  endloop
endfacet
facet normal 0 1 0
  outer loop
    vertex 134 -48.7156009400759 49.2
    vertex 117.609864488687 -48.7156009400759 25.61
    vertex 117.609864488687 -48.7156009400759 49.2
  endloop
endfacet
facet normal 0 1 0
  outer loop
    vertex 117.609864488687 -48.7156009400759 25.61
    vertex 134 -48.7156009400759 49.2
    vertex 134 -48.7156009400759 25.6
  endloop
endfacet
facet normal -1 0 0
  outer loop
    vertex 48.7156009400759 -117.609864488687 49.2
    vertex 48.7156009400759 -117.609864488687 25.61
    vertex 48.7156009400759 -134 49.2
  endloop
endfacet
facet normal -1 0 0
  outer loop
    vertex 48.7156009400759 -117.609864488687 25.61
    vertex 48.7156009400759 -134 25.6
    vertex 48.7156009400759 -134 49.2
  endloop
endfacet
facet normal 1 0 0
  outer loop
    vertex -48.7156009400759 -134 49.2
    vertex -48.7156009400759 -117.609864488687 25.61
    vertex -48.7156009400759 -117.609864488687 49.2
  endloop
endfacet
facet normal 1 0 0
  outer loop
    vertex -48.7156009400759 -117.609864488687 25.61
    vertex -48.7156009400759 -134 49.2
    vertex -48.7156009400759 -134 25.6
  endloop
endfacet
facet normal 1.85078776036983E-04 6.1012295844501E-04 .99999979674789
  outer loop
    vertex 48.7156009400759 134 25.6
    vertex 24.8349979926531 124.853966195331 25.61
    vertex 48.7156009400759 117.609864488687 25.61
  endloop
endfacet
facet normal 8.56590573182894E-05 8.6971100419446E-04 .999999618132575
  outer loop
    vertex 48.7156009400759 134 25.6
    vertex 7.7948768765729E-15 127.3 25.61
    vertex 24.8349979926531 124.853966195331 25.61
  endloop
endfacet
facet normal -8.56590573182893E-05 8.6971100419446E-04 .999999618132575
  outer loop
    vertex -48.7156009400759 134 25.6
    vertex -24.8349979926531 124.853966195331 25.61
    vertex 7.7948768765729E-15 127.3 25.61
  endloop
endfacet
facet normal -1.85078776036983E-04 6.1012295844501E-04 .99999979674789
  outer loop
    vertex -48.7156009400759 134 25.6
    vertex -48.7156009400759 117.609864488687 25.61
    vertex -24.8349979926531 124.853966195331 25.61
  endloop
endfacet
facet normal 0 1.49253565099678E-03 .999998886168045
  outer loop
    vertex 48.7156009400759 134 25.6
    vertex -48.7156009400759 134 25.6
    vertex 7.7948768765729E-15 127.3 25.61
  endloop
endfacet
facet normal -6.1012295844501E-04 1.85078776036983E-04 .99999979674789
  outer loop
    vertex -134 48.7156009400759 25.6
    vertex -124.853966195331 24.8349979926531 25.61
    vertex -117.609864488687 48.7156009400759 25.61
  endloop
endfacet
facet normal -8.6971100419446E-04 8.56590573182893E-05 .999999618132575
  outer loop
    vertex -134 48.7156009400759 25.6
    vertex -127.3 0 25.61
    vertex -124.853966195331 24.8349979926531 25.61
  endloop
endfacet
facet normal -8.6971100419446E-04 -8.56590573182893E-05 .999999618132575
  outer loop
    vertex -134 -48.7156009400759 25.6
    vertex -124.853966195331 -24.8349979926531 25.61
    vertex -127.3 0 25.61
  endloop
endfacet
facet normal -6.1012295844501E-04 -1.85078776036983E-04 .99999979674789
  outer loop
    vertex -134 -48.7156009400759 25.6
    vertex -117.609864488687 -48.7156009400759 25.61
    vertex -124.853966195331 -24.8349979926531 25.61
  endloop
endfacet
facet normal -1.49253565099678E-03 0 .999998886168045
  outer loop
    vertex -134 48.7156009400759 25.6
    vertex -134 -48.7156009400759 25.6
    vertex -127.3 0 25.61
  endloop
endfacet
facet normal -1.85078776036983E-04 -6.1012295844501E-04 .99999979674789
  outer loop
    vertex -48.7156009400759 -134 25.6
    vertex -24.8349979926531 -124.853966195331 25.61
    vertex -48.7156009400759 -117.609864488687 25.61
  endloop
endfacet
facet normal -8.56590573182894E-05 -8.6971100419446E-04 .999999618132575
  outer loop
    vertex -48.7156009400759 -134 25.6
    vertex -7.7948768765729E-15 -127.3 25.61
    vertex -24.8349979926531 -124.853966195331 25.61
  endloop
endfacet
facet normal 8.56590573182893E-05 -8.6971100419446E-04 .999999618132575
  outer loop
    vertex 48.7156009400759 -134 25.6
    vertex 24.8349979926531 -124.853966195331 25.61
    vertex -7.7948768765729E-15 -127.3 25.61
  endloop
endfacet
facet normal 1.85078776036983E-04 -6.1012295844501E-04 .99999979674789
  outer loop
    vertex 48.7156009400759 -134 25.6
    vertex 48.7156009400759 -117.609864488687 25.61
    vertex 24.8349979926531 -124.853966195331 25.61
  endloop
endfacet
facet normal 0 -1.49253565099678E-03 .999998886168045
  outer loop
    vertex -48.7156009400759 -134 25.6
    vertex 48.7156009400759 -134 25.6
    vertex -7.7948768765729E-15 -127.3 25.61
  endloop
endfacet
facet normal 6.1012295844501E-04 -1.85078776036983E-04 .99999979674789
  outer loop
    vertex 134 -48.7156009400759 25.6
    vertex 124.853966195331 -24.8349979926531 25.61
    vertex 117.609864488687 -48.7156009400759 25.61
  endloop
endfacet
facet normal 8.6971100419446E-04 -8.56590573182893E-05 .999999618132575
  outer loop
    vertex 134 -48.7156009400759 25.6
    vertex 127.3 0 25.61
    vertex 124.853966195331 -24.8349979926531 25.61
  endloop
endfacet
facet normal 8.6971100419446E-04 8.56590573182893E-05 .999999618132575
  outer loop
    vertex 134 48.7156009400759 25.6
    vertex 124.853966195331 24.8349979926531 25.61
    vertex 127.3 0 25.61
  endloop
endfacet
facet normal 6.1012295844501E-04 1.85078776036983E-04 .99999979674789
  outer loop
    vertex 134 48.7156009400759 25.6
    vertex 117.609864488687 48.7156009400759 25.61
    vertex 124.853966195331 24.8349979926531 25.61
  endloop
endfacet
facet normal 1.49253565099678E-03 0 .999998886168045
  outer loop
    vertex 134 -48.7156009400759 25.6
    vertex 134 48.7156009400759 25.6
    vertex 127.3 0 25.61
  endloop
endfacet
facet normal 1 0 0
  outer loop
    vertex 147.5 -16 0
    vertex 147.5 16 10
    vertex 147.5 -16 10
  endloop
endfacet
facet normal 1 0 0
  outer loop
    vertex 147.5 -16 0
    vertex 147.5 16 0
    vertex 147.5 16 10
  endloop
endfacet
facet normal 0 1 0
  outer loop
    vertex 147.5 16 10
    vertex 147.5 16 0
    vertex 134 16 10
  endloop
endfacet
facet normal 0 1 0
  outer loop
    vertex 134 16 10
    vertex 147.5 16 0
    vertex 134 16 2
  endloop
endfacet
facet normal 0 1 0
  outer loop
    vertex 134 16 2
    vertex 147.5 16 0
    vertex 45.5 16 2
  endloop
endfacet
facet normal 0 1 0
  outer loop
    vertex 45.5 16 0
    vertex 45.5 16 2
    vertex 147.5 16 0
  endloop
endfacet
facet normal -1 0 0
  outer loop
    vertex 45.5 16 0
    vertex 45.5 -16 2
    vertex 45.5 16 2
  endloop
endfacet
facet normal -1 0 0
  outer loop
    vertex 45.5 16 0
    vertex 45.5 -16 0
    vertex 45.5 -16 2
  endloop
endfacet
facet normal 0 -1 0
  outer loop
    vertex 134 -16 2
    vertex 45.5 -16 2
    vertex 45.5 -16 0
  endloop
endfacet
facet normal 0 -1 0
  outer loop
    vertex 134 -16 2
    vertex 45.5 -16 0
    vertex 147.5 -16 0
  endloop
endfacet
facet normal 0 -1 0
  outer loop
    vertex 134 -16 2
    vertex 147.5 -16 10
    vertex 134 -16 10
  endloop
endfacet
facet normal 0 -1 0
  outer loop
    vertex 134 -16 2
    vertex 147.5 -16 0
    vertex 147.5 -16 10
  endloop
endfacet
facet normal -1 0 0
  outer loop
    vertex 134 16 10
    vertex 134 -16 2
    vertex 134 -16 10
  endloop
endfacet
facet normal -1 0 0
  outer loop
    vertex 134 16 10
    vertex 134 16 2
    vertex 134 -16 2
  endloop
endfacet
facet normal 0 0 1
  outer loop
    vertex 147.5 -16 10
    vertex 147.5 16 10
    vertex 134 -16 10
  endloop
endfacet
facet normal 0 0 1
  outer loop
    vertex 134 -16 10
    vertex 147.5 16 10
    vertex 134 16 10
  endloop
endfacet
facet normal 0 0 1
  outer loop
    vertex 134 -16 2
    vertex 134 16 2
    vertex 45.5 -16 2
  endloop
endfacet
facet normal 0 0 1
  outer loop
    vertex 134 16 2
    vertex 45.5 16 2
    vertex 45.5 -16 2
  endloop
endfacet
facet normal 0 0 -1
  outer loop
    vertex 147.5 -16 0
    vertex 45.5 -16 0
    vertex 147.5 16 0
  endloop
endfacet
facet normal 0 0 -1
  outer loop
    vertex 147.5 16 0
    vertex 45.5 -16 0
    vertex 45.5 16 0
  endloop
endfacet
facet normal -1 0 0
  outer loop
    vertex -147.5 16 0
    vertex -147.5 -16 10
    vertex -147.5 16 10
  endloop
endfacet
facet normal -1 0 0
  outer loop
    vertex -147.5 16 0
    vertex -147.5 -16 0
    vertex -147.5 -16 10
  endloop
endfacet
facet normal 0 -1 0
  outer loop
    vertex -147.5 -16 10
    vertex -147.5 -16 0
    vertex -134 -16 10
  endloop
endfacet
facet normal 0 -1 0
  outer loop
    vertex -134 -16 10
    vertex -147.5 -16 0
    vertex -134 -16 2
  endloop
endfacet
facet normal 0 -1 0
  outer loop
    vertex -134 -16 2
    vertex -147.5 -16 0
    vertex -45.5 -16 2
  endloop
endfacet
facet normal 0 -1 0
  outer loop
    vertex -45.5 -16 0
    vertex -45.5 -16 2
    vertex -147.5 -16 0
  endloop
endfacet
facet normal 1 0 0
  outer loop
    vertex -45.5 -16 0
    vertex -45.5 16 2
    vertex -45.5 -16 2
  endloop
endfacet
facet normal 1 0 0
  outer loop
    vertex -45.5 -16 0
    vertex -45.5 16 0
    vertex -45.5 16 2
  endloop
endfacet
facet normal 0 1 0
  outer loop
    vertex -134 16 2
    vertex -45.5 16 2
    vertex -45.5 16 0
  endloop
endfacet
facet normal 0 1 0
  outer loop
    vertex -134 16 2
    vertex -45.5 16 0
    vertex -147.5 16 0
  endloop
endfacet
facet normal 0 1 0
  outer loop
    vertex -134 16 2
    vertex -147.5 16 10
    vertex -134 16 10
  endloop
endfacet
facet normal 0 1 0
  outer loop
    vertex -134 16 2
    vertex -147.5 16 0
    vertex -147.5 16 10
  endloop
endfacet
facet normal 1 0 0
  outer loop
    vertex -134 -16 10
    vertex -134 16 2
    vertex -134 16 10
  endloop
endfacet
facet normal 1 0 0
  outer loop
    vertex -134 -16 10
    vertex -134 -16 2
    vertex -134 16 2
  endloop
endfacet
facet normal 0 0 1
  outer loop
    vertex -147.5 16 10
    vertex -147.5 -16 10
    vertex -134 16 10
  endloop
endfacet
facet normal 0 0 1
  outer loop
    vertex -134 16 10
    vertex -147.5 -16 10
    vertex -134 -16 10
  endloop
endfacet
facet normal 0 0 1
  outer loop
    vertex -134 16 2
    vertex -134 -16 2
    vertex -45.5 16 2
  endloop
endfacet
facet normal 0 0 1
  outer loop
    vertex -134 -16 2
    vertex -45.5 -16 2
    vertex -45.5 16 2
  endloop
endfacet
facet normal 0 0 -1
  outer loop
    vertex -147.5 16 0
    vertex -45.5 16 0
    vertex -147.5 -16 0
  endloop
endfacet
facet normal 0 0 -1
  outer loop
    vertex -147.5 -16 0
    vertex -45.5 16 0
    vertex -45.5 -16 0
  endloop
endfacet
endsolid PCAP_SVP_C6
