solid PCAP_SVP_F8-M
facet normal 0 0 1
  outer loop
    vertex 0 0 317
    vertex -192.85 0 317
    vertex -189.144441325763 -37.6231686008103 317
  endloop
endfacet
facet normal 0 0 1
  outer loop
    vertex 0 0 317
    vertex -189.144441325763 -37.6231686008103 317
    vertex -178.170167844802 -73.8004999316076 317
  endloop
endfacet
facet normal 0 0 1
  outer loop
    vertex 0 0 317
    vertex -178.170167844802 -73.8004999316076 317
    vertex -160.348914732546 -107.14171943783 317
  endloop
endfacet
facet normal 0 0 1
  outer loop
    vertex 0 0 317
    vertex -160.348914732546 -107.14171943783 317
    vertex -136.365542751826 -136.365542751826 317
  endloop
endfacet
facet normal 0 0 1
  outer loop
    vertex 0 0 317
    vertex -136.365542751826 -136.365542751826 317
    vertex -107.14171943783 -160.348914732546 317
  endloop
endfacet
facet normal 0 0 1
  outer loop
    vertex 0 0 317
    vertex -107.14171943783 -160.348914732546 317
    vertex -73.8004999316076 -178.170167844802 317
  endloop
endfacet
facet normal 0 0 1
  outer loop
    vertex 0 0 317
    vertex -73.8004999316076 -178.170167844802 317
    vertex -37.6231686008103 -189.144441325763 317
  endloop
endfacet
facet normal 0 0 1
  outer loop
    vertex 0 0 317
    vertex -37.6231686008103 -189.144441325763 317
    vertex -1.18086567607784E-14 -192.85 317
  endloop
endfacet
facet normal 0 0 1
  outer loop
    vertex 0 0 317
    vertex -1.18086567607784E-14 -192.85 317
    vertex 37.6231686008103 -189.144441325763 317
  endloop
endfacet
facet normal 0 0 1
  outer loop
    vertex 0 0 317
    vertex 37.6231686008103 -189.144441325763 317
    vertex 73.8004999316076 -178.170167844802 317
  endloop
endfacet
facet normal 0 0 1
  outer loop
    vertex 0 0 317
    vertex 73.8004999316076 -178.170167844802 317
    vertex 107.14171943783 -160.348914732546 317
  endloop
endfacet
facet normal 0 0 1
  outer loop
    vertex 0 0 317
    vertex 107.14171943783 -160.348914732546 317
    vertex 136.365542751826 -136.365542751826 317
  endloop
endfacet
facet normal 0 0 1
  outer loop
    vertex 0 0 317
    vertex 136.365542751826 -136.365542751826 317
    vertex 160.348914732546 -107.14171943783 317
  endloop
endfacet
facet normal 0 0 1
  outer loop
    vertex 0 0 317
    vertex 160.348914732546 -107.14171943783 317
    vertex 178.170167844802 -73.8004999316076 317
  endloop
endfacet
facet normal 0 0 1
  outer loop
    vertex 0 0 317
    vertex 178.170167844802 -73.8004999316076 317
    vertex 189.144441325763 -37.6231686008103 317
  endloop
endfacet
facet normal 0 0 1
  outer loop
    vertex 0 0 317
    vertex 189.144441325763 -37.6231686008103 317
    vertex 192.85 0 317
  endloop
endfacet
facet normal 0 0 1
  outer loop
    vertex 0 0 317
    vertex 192.85 0 317
    vertex 189.144441325763 37.6231686008103 317
  endloop
endfacet
facet normal 0 0 1
  outer loop
    vertex 0 0 317
    vertex 189.144441325763 37.6231686008103 317
    vertex 178.170167844802 73.8004999316076 317
  endloop
endfacet
facet normal 0 0 1
  outer loop
    vertex 0 0 317
    vertex 178.170167844802 73.8004999316076 317
    vertex 160.348914732546 107.14171943783 317
  endloop
endfacet
facet normal 0 0 1
  outer loop
    vertex 0 0 317
    vertex 160.348914732546 107.14171943783 317
    vertex 136.365542751826 136.365542751826 317
  endloop
endfacet
facet normal 0 0 1
  outer loop
    vertex 0 0 317
    vertex 136.365542751826 136.365542751826 317
    vertex 107.14171943783 160.348914732546 317
  endloop
endfacet
facet normal 0 0 1
  outer loop
    vertex 0 0 317
    vertex 107.14171943783 160.348914732546 317
    vertex 73.8004999316076 178.170167844802 317
  endloop
endfacet
facet normal 0 0 1
  outer loop
    vertex 0 0 317
    vertex 73.8004999316076 178.170167844802 317
    vertex 37.6231686008103 189.144441325763 317
  endloop
endfacet
facet normal 0 0 1
  outer loop
    vertex 0 0 317
    vertex 37.6231686008103 189.144441325763 317
    vertex 1.18086567607784E-14 192.85 317
  endloop
endfacet
facet normal 0 0 1
  outer loop
    vertex 0 0 317
    vertex 1.18086567607784E-14 192.85 317
    vertex -37.6231686008103 189.144441325763 317
  endloop
endfacet
facet normal 0 0 1
  outer loop
    vertex 0 0 317
    vertex -37.6231686008103 189.144441325763 317
    vertex -73.8004999316076 178.170167844802 317
  endloop
endfacet
facet normal 0 0 1
  outer loop
    vertex 0 0 317
    vertex -73.8004999316076 178.170167844802 317
    vertex -107.14171943783 160.348914732546 317
  endloop
endfacet
facet normal 0 0 1
  outer loop
    vertex 0 0 317
    vertex -107.14171943783 160.348914732546 317
    vertex -136.365542751826 136.365542751826 317
  endloop
endfacet
facet normal 0 0 1
  outer loop
    vertex 0 0 317
    vertex -136.365542751826 136.365542751826 317
    vertex -160.348914732546 107.14171943783 317
  endloop
endfacet
facet normal 0 0 1
  outer loop
    vertex 0 0 317
    vertex -160.348914732546 107.14171943783 317
    vertex -178.170167844802 73.8004999316076 317
  endloop
endfacet
facet normal 0 0 1
  outer loop
    vertex 0 0 317
    vertex -178.170167844802 73.8004999316076 317
    vertex -189.144441325763 37.6231686008103 317
  endloop
endfacet
facet normal 0 0 1
  outer loop
    vertex 0 0 317
    vertex -189.144441325763 37.6231686008103 317
    vertex -192.85 0 317
  endloop
endfacet
facet normal -.995184726672197 -.09801714032956 0
  outer loop
    vertex -192.85 0 317
    vertex -189.144441325763 -37.6231686008103 33.51
    vertex -189.144441325763 -37.6231686008103 317
  endloop
endfacet
facet normal -.995184726672197 -.09801714032956 0
  outer loop
    vertex -192.85 0 317
    vertex -192.85 0 33.51
    vertex -189.144441325763 -37.6231686008103 33.51
  endloop
endfacet
facet normal -.956940335732211 -.290284677254454 0
  outer loop
    vertex -189.144441325763 -37.6231686008103 317
    vertex -178.170167844802 -73.8004999316076 33.51
    vertex -178.170167844802 -73.8004999316076 317
  endloop
endfacet
facet normal -.956940335732211 -.290284677254454 0
  outer loop
    vertex -189.144441325763 -37.6231686008103 317
    vertex -189.144441325763 -37.6231686008103 33.51
    vertex -178.170167844802 -73.8004999316076 33.51
  endloop
endfacet
facet normal -.881921264348351 -.471396736826005 0
  outer loop
    vertex -178.170167844802 -73.8004999316076 317
    vertex -160.348914732546 -107.14171943783 65
    vertex -160.348914732546 -107.14171943783 317
  endloop
endfacet
facet normal -.881921264348351 -.471396736826005 0
  outer loop
    vertex -178.170167844802 -73.8004999316076 317
    vertex -178.170167844802 -73.8004999316076 65
    vertex -160.348914732546 -107.14171943783 65
  endloop
endfacet
facet normal -.773010453362746 -.634393284163635 0
  outer loop
    vertex -160.348914732546 -107.14171943783 317
    vertex -136.365542751826 -136.365542751826 65
    vertex -136.365542751826 -136.365542751826 317
  endloop
endfacet
facet normal -.773010453362746 -.634393284163635 0
  outer loop
    vertex -160.348914732546 -107.14171943783 317
    vertex -160.348914732546 -107.14171943783 65
    vertex -136.365542751826 -136.365542751826 65
  endloop
endfacet
facet normal -.634393284163635 -.773010453362746 0
  outer loop
    vertex -136.365542751826 -136.365542751826 317
    vertex -107.14171943783 -160.348914732546 65
    vertex -107.14171943783 -160.348914732546 317
  endloop
endfacet
facet normal -.634393284163635 -.773010453362746 0
  outer loop
    vertex -136.365542751826 -136.365542751826 317
    vertex -136.365542751826 -136.365542751826 65
    vertex -107.14171943783 -160.348914732546 65
  endloop
endfacet
facet normal -.471396736826005 -.881921264348351 0
  outer loop
    vertex -107.14171943783 -160.348914732546 317
    vertex -73.8004999316076 -178.170167844802 65
    vertex -73.8004999316076 -178.170167844802 317
  endloop
endfacet
facet normal -.471396736826005 -.881921264348351 0
  outer loop
    vertex -107.14171943783 -160.348914732546 317
    vertex -107.14171943783 -160.348914732546 65
    vertex -73.8004999316076 -178.170167844802 65
  endloop
endfacet
facet normal -.290284677254454 -.956940335732211 0
  outer loop
    vertex -73.8004999316076 -178.170167844802 317
    vertex -37.6231686008103 -189.144441325763 33.51
    vertex -37.6231686008103 -189.144441325763 317
  endloop
endfacet
facet normal -.290284677254454 -.956940335732211 0
  outer loop
    vertex -73.8004999316076 -178.170167844802 317
    vertex -73.8004999316076 -178.170167844802 33.51
    vertex -37.6231686008103 -189.144441325763 33.51
  endloop
endfacet
facet normal -9.80171403295601E-02 -.995184726672197 0
  outer loop
    vertex -37.6231686008103 -189.144441325763 317
    vertex -1.18086567607784E-14 -192.85 33.51
    vertex -1.18086567607784E-14 -192.85 317
  endloop
endfacet
facet normal -9.80171403295601E-02 -.995184726672197 0
  outer loop
    vertex -37.6231686008103 -189.144441325763 317
    vertex -37.6231686008103 -189.144441325763 33.51
    vertex -1.18086567607784E-14 -192.85 33.51
  endloop
endfacet
facet normal .09801714032956 -.995184726672197 0
  outer loop
    vertex -1.18086567607784E-14 -192.85 317
    vertex 37.6231686008103 -189.144441325763 33.51
    vertex 37.6231686008103 -189.144441325763 317
  endloop
endfacet
facet normal .09801714032956 -.995184726672197 0
  outer loop
    vertex -1.18086567607784E-14 -192.85 317
    vertex -1.18086567607784E-14 -192.85 33.51
    vertex 37.6231686008103 -189.144441325763 33.51
  endloop
endfacet
facet normal .290284677254454 -.956940335732211 0
  outer loop
    vertex 37.6231686008103 -189.144441325763 317
    vertex 73.8004999316076 -178.170167844802 33.51
    vertex 73.8004999316076 -178.170167844802 317
  endloop
endfacet
facet normal .290284677254454 -.956940335732211 0
  outer loop
    vertex 37.6231686008103 -189.144441325763 317
    vertex 37.6231686008103 -189.144441325763 33.51
    vertex 73.8004999316076 -178.170167844802 33.51
  endloop
endfacet
facet normal .471396736826005 -.881921264348351 0
  outer loop
    vertex 73.8004999316076 -178.170167844802 317
    vertex 107.14171943783 -160.348914732546 65
    vertex 107.14171943783 -160.348914732546 317
  endloop
endfacet
facet normal .471396736826005 -.881921264348351 0
  outer loop
    vertex 73.8004999316076 -178.170167844802 317
    vertex 73.8004999316076 -178.170167844802 65
    vertex 107.14171943783 -160.348914732546 65
  endloop
endfacet
facet normal .634393284163635 -.773010453362746 0
  outer loop
    vertex 107.14171943783 -160.348914732546 317
    vertex 136.365542751826 -136.365542751826 65
    vertex 136.365542751826 -136.365542751826 317
  endloop
endfacet
facet normal .634393284163635 -.773010453362746 0
  outer loop
    vertex 107.14171943783 -160.348914732546 317
    vertex 107.14171943783 -160.348914732546 65
    vertex 136.365542751826 -136.365542751826 65
  endloop
endfacet
facet normal .773010453362746 -.634393284163635 0
  outer loop
    vertex 136.365542751826 -136.365542751826 317
    vertex 160.348914732546 -107.14171943783 65
    vertex 160.348914732546 -107.14171943783 317
  endloop
endfacet
facet normal .773010453362746 -.634393284163635 0
  outer loop
    vertex 136.365542751826 -136.365542751826 317
    vertex 136.365542751826 -136.365542751826 65
    vertex 160.348914732546 -107.14171943783 65
  endloop
endfacet
facet normal .881921264348351 -.471396736826005 0
  outer loop
    vertex 160.348914732546 -107.14171943783 317
    vertex 178.170167844802 -73.8004999316076 65
    vertex 178.170167844802 -73.8004999316076 317
  endloop
endfacet
facet normal .881921264348351 -.471396736826005 0
  outer loop
    vertex 160.348914732546 -107.14171943783 317
    vertex 160.348914732546 -107.14171943783 65
    vertex 178.170167844802 -73.8004999316076 65
  endloop
endfacet
facet normal .956940335732211 -.290284677254454 0
  outer loop
    vertex 178.170167844802 -73.8004999316076 317
    vertex 189.144441325763 -37.6231686008103 33.51
    vertex 189.144441325763 -37.6231686008103 317
  endloop
endfacet
facet normal .956940335732211 -.290284677254454 0
  outer loop
    vertex 178.170167844802 -73.8004999316076 317
    vertex 178.170167844802 -73.8004999316076 33.51
    vertex 189.144441325763 -37.6231686008103 33.51
  endloop
endfacet
facet normal .995184726672197 -.09801714032956 0
  outer loop
    vertex 189.144441325763 -37.6231686008103 317
    vertex 192.85 0 33.51
    vertex 192.85 0 317
  endloop
endfacet
facet normal .995184726672197 -.09801714032956 0
  outer loop
    vertex 189.144441325763 -37.6231686008103 317
    vertex 189.144441325763 -37.6231686008103 33.51
    vertex 192.85 0 33.51
  endloop
endfacet
facet normal .995184726672197 .09801714032956 0
  outer loop
    vertex 192.85 0 317
    vertex 189.144441325763 37.6231686008103 33.51
    vertex 189.144441325763 37.6231686008103 317
  endloop
endfacet
facet normal .995184726672197 .09801714032956 0
  outer loop
    vertex 192.85 0 317
    vertex 192.85 0 33.51
    vertex 189.144441325763 37.6231686008103 33.51
  endloop
endfacet
facet normal .956940335732211 .290284677254454 0
  outer loop
    vertex 189.144441325763 37.6231686008103 317
    vertex 178.170167844802 73.8004999316076 33.51
    vertex 178.170167844802 73.8004999316076 317
  endloop
endfacet
facet normal .956940335732211 .290284677254454 0
  outer loop
    vertex 189.144441325763 37.6231686008103 317
    vertex 189.144441325763 37.6231686008103 33.51
    vertex 178.170167844802 73.8004999316076 33.51
  endloop
endfacet
facet normal .881921264348351 .471396736826005 0
  outer loop
    vertex 178.170167844802 73.8004999316076 317
    vertex 160.348914732546 107.14171943783 65
    vertex 160.348914732546 107.14171943783 317
  endloop
endfacet
facet normal .881921264348351 .471396736826005 0
  outer loop
    vertex 178.170167844802 73.8004999316076 317
    vertex 178.170167844802 73.8004999316076 65
    vertex 160.348914732546 107.14171943783 65
  endloop
endfacet
facet normal .773010453362746 .634393284163635 0
  outer loop
    vertex 160.348914732546 107.14171943783 317
    vertex 136.365542751826 136.365542751826 65
    vertex 136.365542751826 136.365542751826 317
  endloop
endfacet
facet normal .773010453362746 .634393284163635 0
  outer loop
    vertex 160.348914732546 107.14171943783 317
    vertex 160.348914732546 107.14171943783 65
    vertex 136.365542751826 136.365542751826 65
  endloop
endfacet
facet normal .634393284163635 .773010453362746 0
  outer loop
    vertex 136.365542751826 136.365542751826 317
    vertex 107.14171943783 160.348914732546 65
    vertex 107.14171943783 160.348914732546 317
  endloop
endfacet
facet normal .634393284163635 .773010453362746 0
  outer loop
    vertex 136.365542751826 136.365542751826 317
    vertex 136.365542751826 136.365542751826 65
    vertex 107.14171943783 160.348914732546 65
  endloop
endfacet
facet normal .471396736826005 .881921264348351 0
  outer loop
    vertex 107.14171943783 160.348914732546 317
    vertex 73.8004999316076 178.170167844802 65
    vertex 73.8004999316076 178.170167844802 317
  endloop
endfacet
facet normal .471396736826005 .881921264348351 0
  outer loop
    vertex 107.14171943783 160.348914732546 317
    vertex 107.14171943783 160.348914732546 65
    vertex 73.8004999316076 178.170167844802 65
  endloop
endfacet
facet normal .290284677254454 .956940335732211 0
  outer loop
    vertex 73.8004999316076 178.170167844802 317
    vertex 37.6231686008103 189.144441325763 33.51
    vertex 37.6231686008103 189.144441325763 317
  endloop
endfacet
facet normal .290284677254454 .956940335732211 0
  outer loop
    vertex 73.8004999316076 178.170167844802 317
    vertex 73.8004999316076 178.170167844802 33.51
    vertex 37.6231686008103 189.144441325763 33.51
  endloop
endfacet
facet normal 9.80171403295601E-02 .995184726672197 0
  outer loop
    vertex 37.6231686008103 189.144441325763 317
    vertex 1.18086567607784E-14 192.85 33.51
    vertex 1.18086567607784E-14 192.85 317
  endloop
endfacet
facet normal 9.80171403295601E-02 .995184726672197 0
  outer loop
    vertex 37.6231686008103 189.144441325763 317
    vertex 37.6231686008103 189.144441325763 33.51
    vertex 1.18086567607784E-14 192.85 33.51
  endloop
endfacet
facet normal -.09801714032956 .995184726672197 0
  outer loop
    vertex 1.18086567607784E-14 192.85 317
    vertex -37.6231686008103 189.144441325763 33.51
    vertex -37.6231686008103 189.144441325763 317
  endloop
endfacet
facet normal -.09801714032956 .995184726672197 0
  outer loop
    vertex 1.18086567607784E-14 192.85 317
    vertex 1.18086567607784E-14 192.85 33.51
    vertex -37.6231686008103 189.144441325763 33.51
  endloop
endfacet
facet normal -.290284677254454 .956940335732211 0
  outer loop
    vertex -37.6231686008103 189.144441325763 317
    vertex -73.8004999316076 178.170167844802 33.51
    vertex -73.8004999316076 178.170167844802 317
  endloop
endfacet
facet normal -.290284677254454 .956940335732211 0
  outer loop
    vertex -37.6231686008103 189.144441325763 317
    vertex -37.6231686008103 189.144441325763 33.51
    vertex -73.8004999316076 178.170167844802 33.51
  endloop
endfacet
facet normal -.471396736826005 .881921264348351 0
  outer loop
    vertex -73.8004999316076 178.170167844802 317
    vertex -107.14171943783 160.348914732546 65
    vertex -107.14171943783 160.348914732546 317
  endloop
endfacet
facet normal -.471396736826005 .881921264348351 0
  outer loop
    vertex -73.8004999316076 178.170167844802 317
    vertex -73.8004999316076 178.170167844802 65
    vertex -107.14171943783 160.348914732546 65
  endloop
endfacet
facet normal -.634393284163635 .773010453362746 0
  outer loop
    vertex -107.14171943783 160.348914732546 317
    vertex -136.365542751826 136.365542751826 65
    vertex -136.365542751826 136.365542751826 317
  endloop
endfacet
facet normal -.634393284163635 .773010453362746 0
  outer loop
    vertex -107.14171943783 160.348914732546 317
    vertex -107.14171943783 160.348914732546 65
    vertex -136.365542751826 136.365542751826 65
  endloop
endfacet
facet normal -.773010453362746 .634393284163635 0
  outer loop
    vertex -136.365542751826 136.365542751826 317
    vertex -160.348914732546 107.14171943783 65
    vertex -160.348914732546 107.14171943783 317
  endloop
endfacet
facet normal -.773010453362746 .634393284163635 0
  outer loop
    vertex -136.365542751826 136.365542751826 317
    vertex -136.365542751826 136.365542751826 65
    vertex -160.348914732546 107.14171943783 65
  endloop
endfacet
facet normal -.881921264348351 .471396736826005 0
  outer loop
    vertex -160.348914732546 107.14171943783 317
    vertex -178.170167844802 73.8004999316076 65
    vertex -178.170167844802 73.8004999316076 317
  endloop
endfacet
facet normal -.881921264348351 .471396736826005 0
  outer loop
    vertex -160.348914732546 107.14171943783 317
    vertex -160.348914732546 107.14171943783 65
    vertex -178.170167844802 73.8004999316076 65
  endloop
endfacet
facet normal -.956940335732211 .290284677254454 0
  outer loop
    vertex -178.170167844802 73.8004999316076 317
    vertex -189.144441325763 37.6231686008103 33.51
    vertex -189.144441325763 37.6231686008103 317
  endloop
endfacet
facet normal -.956940335732211 .290284677254454 0
  outer loop
    vertex -178.170167844802 73.8004999316076 317
    vertex -178.170167844802 73.8004999316076 33.51
    vertex -189.144441325763 37.6231686008103 33.51
  endloop
endfacet
facet normal -.995184726672197 .09801714032956 0
  outer loop
    vertex -189.144441325763 37.6231686008103 317
    vertex -192.85 0 33.51
    vertex -192.85 0 317
  endloop
endfacet
facet normal -.995184726672197 .09801714032956 0
  outer loop
    vertex -189.144441325763 37.6231686008103 317
    vertex -189.144441325763 37.6231686008103 33.51
    vertex -192.85 0 33.51
  endloop
endfacet
facet normal 0 0 1
  outer loop
    vertex -73.8004999316076 -203 65
    vertex -73.8004999316076 -178.170167844802 65
    vertex -138.400249965804 -203 65
  endloop
endfacet
facet normal 0 0 1
  outer loop
    vertex -138.400249965804 -203 65
    vertex -73.8004999316076 -178.170167844802 65
    vertex -107.14171943783 -160.348914732546 65
  endloop
endfacet
facet normal 0 0 1
  outer loop
    vertex -138.400249965804 -203 65
    vertex -107.14171943783 -160.348914732546 65
    vertex -136.365542751826 -136.365542751826 65
  endloop
endfacet
facet normal 0 0 1
  outer loop
    vertex -138.400249965804 -203 65
    vertex -136.365542751826 -136.365542751826 65
    vertex -203 -138.400249965804 65
  endloop
endfacet
facet normal 0 0 1
  outer loop
    vertex -203 -138.400249965804 65
    vertex -136.365542751826 -136.365542751826 65
    vertex -160.348914732546 -107.14171943783 65
  endloop
endfacet
facet normal 0 0 1
  outer loop
    vertex -203 -138.400249965804 65
    vertex -160.348914732546 -107.14171943783 65
    vertex -178.170167844802 -73.8004999316076 65
  endloop
endfacet
facet normal 0 0 1
  outer loop
    vertex -203 -138.400249965804 65
    vertex -178.170167844802 -73.8004999316076 65
    vertex -203 -73.8004999316076 65
  endloop
endfacet
facet normal 0 0 1
  outer loop
    vertex -203 73.8004999316076 65
    vertex -178.170167844802 73.8004999316076 65
    vertex -203 138.400249965804 65
  endloop
endfacet
facet normal 0 0 1
  outer loop
    vertex -203 138.400249965804 65
    vertex -178.170167844802 73.8004999316076 65
    vertex -160.348914732546 107.14171943783 65
  endloop
endfacet
facet normal 0 0 1
  outer loop
    vertex -203 138.400249965804 65
    vertex -160.348914732546 107.14171943783 65
    vertex -136.365542751826 136.365542751826 65
  endloop
endfacet
facet normal 0 0 1
  outer loop
    vertex -203 138.400249965804 65
    vertex -136.365542751826 136.365542751826 65
    vertex -138.400249965804 203 65
  endloop
endfacet
facet normal 0 0 1
  outer loop
    vertex -138.400249965804 203 65
    vertex -136.365542751826 136.365542751826 65
    vertex -107.14171943783 160.348914732546 65
  endloop
endfacet
facet normal 0 0 1
  outer loop
    vertex -138.400249965804 203 65
    vertex -107.14171943783 160.348914732546 65
    vertex -73.8004999316076 178.170167844802 65
  endloop
endfacet
facet normal 0 0 1
  outer loop
    vertex -138.400249965804 203 65
    vertex -73.8004999316076 178.170167844802 65
    vertex -73.8004999316076 203 65
  endloop
endfacet
facet normal 0 0 1
  outer loop
    vertex 203 203 65
    vertex 73.8004999316076 203 65
    vertex 73.8004999316076 178.170167844802 65
  endloop
endfacet
facet normal 0 0 1
  outer loop
    vertex 203 203 65
    vertex 73.8004999316076 178.170167844802 65
    vertex 107.14171943783 160.348914732546 65
  endloop
endfacet
facet normal 0 0 1
  outer loop
    vertex 203 203 65
    vertex 107.14171943783 160.348914732546 65
    vertex 136.365542751826 136.365542751826 65
  endloop
endfacet
facet normal 0 0 1
  outer loop
    vertex 203 203 65
    vertex 136.365542751826 136.365542751826 65
    vertex 160.348914732546 107.14171943783 65
  endloop
endfacet
facet normal 0 0 1
  outer loop
    vertex 203 203 65
    vertex 160.348914732546 107.14171943783 65
    vertex 178.170167844802 73.8004999316076 65
  endloop
endfacet
facet normal 0 0 1
  outer loop
    vertex 203 203 65
    vertex 178.170167844802 73.8004999316076 65
    vertex 203 73.8004999316076 65
  endloop
endfacet
facet normal 0 0 1
  outer loop
    vertex 203 -203 65
    vertex 203 -73.8004999316076 65
    vertex 178.170167844802 -73.8004999316076 65
  endloop
endfacet
facet normal 0 0 1
  outer loop
    vertex 203 -203 65
    vertex 178.170167844802 -73.8004999316076 65
    vertex 160.348914732546 -107.14171943783 65
  endloop
endfacet
facet normal 0 0 1
  outer loop
    vertex 203 -203 65
    vertex 160.348914732546 -107.14171943783 65
    vertex 136.365542751826 -136.365542751826 65
  endloop
endfacet
facet normal 0 0 1
  outer loop
    vertex 203 -203 65
    vertex 136.365542751826 -136.365542751826 65
    vertex 107.14171943783 -160.348914732546 65
  endloop
endfacet
facet normal 0 0 1
  outer loop
    vertex 203 -203 65
    vertex 107.14171943783 -160.348914732546 65
    vertex 73.8004999316076 -178.170167844802 65
  endloop
endfacet
facet normal 0 0 1
  outer loop
    vertex 203 -203 65
    vertex 73.8004999316076 -178.170167844802 65
    vertex 73.8004999316076 -203 65
  endloop
endfacet
facet normal 0 0 -1
  outer loop
    vertex 203 203 2
    vertex -203 138.400249965804 2
    vertex -138.400249965804 203 2
  endloop
endfacet
facet normal 0 0 -1
  outer loop
    vertex 203 203 2
    vertex -203 -138.400249965804 2
    vertex -203 138.400249965804 2
  endloop
endfacet
facet normal 0 0 -1
  outer loop
    vertex 203 203 2
    vertex -138.400249965804 -203 2
    vertex -203 -138.400249965804 2
  endloop
endfacet
facet normal 0 0 -1
  outer loop
    vertex 203 203 2
    vertex 203 -203 2
    vertex -138.400249965804 -203 2
  endloop
endfacet
facet normal -1 0 0
  outer loop
    vertex -203 138.400249965804 65
    vertex -203 138.400249965804 2
    vertex -203 73.8004999316076 65
  endloop
endfacet
facet normal -1 0 0
  outer loop
    vertex -203 73.8004999316076 65
    vertex -203 138.400249965804 2
    vertex -203 73.8004999316076 33.5
  endloop
endfacet
facet normal -1 0 0
  outer loop
    vertex -203 138.400249965804 2
    vertex -203 -73.8004999316076 33.5
    vertex -203 73.8004999316076 33.5
  endloop
endfacet
facet normal -1 0 0
  outer loop
    vertex -203 138.400249965804 2
    vertex -203 -138.400249965804 2
    vertex -203 -73.8004999316076 33.5
  endloop
endfacet
facet normal -1 0 0
  outer loop
    vertex -203 -138.400249965804 2
    vertex -203 -138.400249965804 65
    vertex -203 -73.8004999316076 33.5
  endloop
endfacet
facet normal -1 0 0
  outer loop
    vertex -203 -73.8004999316076 65
    vertex -203 -73.8004999316076 33.5
    vertex -203 -138.400249965804 65
  endloop
endfacet
facet normal 0 1 0
  outer loop
    vertex 203 203 65
    vertex 203 203 2
    vertex 73.8004999316076 203 65
  endloop
endfacet
facet normal 0 1 0
  outer loop
    vertex 203 203 2
    vertex 73.8004999316076 203 33.5
    vertex 73.8004999316076 203 65
  endloop
endfacet
facet normal 0 1 0
  outer loop
    vertex 203 203 2
    vertex -73.8004999316076 203 33.5
    vertex 73.8004999316076 203 33.5
  endloop
endfacet
facet normal 0 1 0
  outer loop
    vertex 203 203 2
    vertex -138.400249965804 203 2
    vertex -73.8004999316076 203 33.5
  endloop
endfacet
facet normal 0 1 0
  outer loop
    vertex -138.400249965804 203 2
    vertex -138.400249965804 203 65
    vertex -73.8004999316076 203 33.5
  endloop
endfacet
facet normal 0 1 0
  outer loop
    vertex -73.8004999316076 203 65
    vertex -73.8004999316076 203 33.5
    vertex -138.400249965804 203 65
  endloop
endfacet
facet normal 1 0 0
  outer loop
    vertex 203 -203 65
    vertex 203 -203 2
    vertex 203 -73.8004999316076 65
  endloop
endfacet
facet normal 1 0 0
  outer loop
    vertex 203 -203 2
    vertex 203 -73.8004999316076 33.5
    vertex 203 -73.8004999316076 65
  endloop
endfacet
facet normal 1 0 0
  outer loop
    vertex 203 -203 2
    vertex 203 73.8004999316076 33.5
    vertex 203 -73.8004999316076 33.5
  endloop
endfacet
facet normal 1 0 0
  outer loop
    vertex 203 -203 2
    vertex 203 203 2
    vertex 203 73.8004999316076 33.5
  endloop
endfacet
facet normal 1 0 0
  outer loop
    vertex 203 203 2
    vertex 203 203 65
    vertex 203 73.8004999316076 33.5
  endloop
endfacet
facet normal 1 0 0
  outer loop
    vertex 203 73.8004999316076 65
    vertex 203 73.8004999316076 33.5
    vertex 203 203 65
  endloop
endfacet
facet normal 0 -1 0
  outer loop
    vertex -138.400249965804 -203 65
    vertex -138.400249965804 -203 2
    vertex -73.8004999316076 -203 65
  endloop
endfacet
facet normal 0 -1 0
  outer loop
    vertex -138.400249965804 -203 2
    vertex -73.8004999316076 -203 33.5
    vertex -73.8004999316076 -203 65
  endloop
endfacet
facet normal 0 -1 0
  outer loop
    vertex -138.400249965804 -203 2
    vertex 73.8004999316076 -203 33.5
    vertex -73.8004999316076 -203 33.5
  endloop
endfacet
facet normal 0 -1 0
  outer loop
    vertex -138.400249965804 -203 2
    vertex 203 -203 2
    vertex 73.8004999316076 -203 33.5
  endloop
endfacet
facet normal 0 -1 0
  outer loop
    vertex 203 -203 2
    vertex 203 -203 65
    vertex 73.8004999316076 -203 33.5
  endloop
endfacet
facet normal 0 -1 0
  outer loop
    vertex 73.8004999316076 -203 65
    vertex 73.8004999316076 -203 33.5
    vertex 203 -203 65
  endloop
endfacet
facet normal -.707106781186547 -.707106781186547 0
  outer loop
    vertex -203 -138.400249965804 65
    vertex -138.400249965804 -203 2
    vertex -138.400249965804 -203 65
  endloop
endfacet
facet normal -.707106781186547 -.707106781186547 0
  outer loop
    vertex -203 -138.400249965804 65
    vertex -203 -138.400249965804 2
    vertex -138.400249965804 -203 2
  endloop
endfacet
facet normal -.707106781186547 .707106781186547 0
  outer loop
    vertex -138.400249965804 203 65
    vertex -203 138.400249965804 2
    vertex -203 138.400249965804 65
  endloop
endfacet
facet normal -.707106781186547 .707106781186547 0
  outer loop
    vertex -138.400249965804 203 65
    vertex -138.400249965804 203 2
    vertex -203 138.400249965804 2
  endloop
endfacet
facet normal 0 1 0
  outer loop
    vertex -178.170167844802 -73.8004999316076 65
    vertex -178.170167844802 -73.8004999316076 33.51
    vertex -203 -73.8004999316076 65
  endloop
endfacet
facet normal 0 1 0
  outer loop
    vertex -178.170167844802 -73.8004999316076 33.51
    vertex -203 -73.8004999316076 33.5
    vertex -203 -73.8004999316076 65
  endloop
endfacet
facet normal 0 -1 0
  outer loop
    vertex -203 73.8004999316076 65
    vertex -178.170167844802 73.8004999316076 33.51
    vertex -178.170167844802 73.8004999316076 65
  endloop
endfacet
facet normal 0 -1 0
  outer loop
    vertex -178.170167844802 73.8004999316076 33.51
    vertex -203 73.8004999316076 65
    vertex -203 73.8004999316076 33.5
  endloop
endfacet
facet normal 1 0 0
  outer loop
    vertex -73.8004999316076 178.170167844802 65
    vertex -73.8004999316076 178.170167844802 33.51
    vertex -73.8004999316076 203 65
  endloop
endfacet
facet normal 1 0 0
  outer loop
    vertex -73.8004999316076 178.170167844802 33.51
    vertex -73.8004999316076 203 33.5
    vertex -73.8004999316076 203 65
  endloop
endfacet
facet normal -1 0 0
  outer loop
    vertex 73.8004999316076 203 65
    vertex 73.8004999316076 178.170167844802 33.51
    vertex 73.8004999316076 178.170167844802 65
  endloop
endfacet
facet normal -1 0 0
  outer loop
    vertex 73.8004999316076 178.170167844802 33.51
    vertex 73.8004999316076 203 65
    vertex 73.8004999316076 203 33.5
  endloop
endfacet
facet normal 0 -1 0
  outer loop
    vertex 178.170167844802 73.8004999316076 65
    vertex 178.170167844802 73.8004999316076 33.51
    vertex 203 73.8004999316076 65
  endloop
endfacet
facet normal 0 -1 0
  outer loop
    vertex 178.170167844802 73.8004999316076 33.51
    vertex 203 73.8004999316076 33.5
    vertex 203 73.8004999316076 65
  endloop
endfacet
facet normal 0 1 0
  outer loop
    vertex 203 -73.8004999316076 65
    vertex 178.170167844802 -73.8004999316076 33.51
    vertex 178.170167844802 -73.8004999316076 65
  endloop
endfacet
facet normal 0 1 0
  outer loop
    vertex 178.170167844802 -73.8004999316076 33.51
    vertex 203 -73.8004999316076 65
    vertex 203 -73.8004999316076 33.5
  endloop
endfacet
facet normal -1 0 0
  outer loop
    vertex 73.8004999316076 -178.170167844802 65
    vertex 73.8004999316076 -178.170167844802 33.51
    vertex 73.8004999316076 -203 65
  endloop
endfacet
facet normal -1 0 0
  outer loop
    vertex 73.8004999316076 -178.170167844802 33.51
    vertex 73.8004999316076 -203 33.5
    vertex 73.8004999316076 -203 65
  endloop
endfacet
facet normal 1 0 0
  outer loop
    vertex -73.8004999316076 -203 65
    vertex -73.8004999316076 -178.170167844802 33.51
    vertex -73.8004999316076 -178.170167844802 65
  endloop
endfacet
facet normal 1 0 0
  outer loop
    vertex -73.8004999316076 -178.170167844802 33.51
    vertex -73.8004999316076 -203 65
    vertex -73.8004999316076 -203 33.5
  endloop
endfacet
facet normal 1.22170240558173E-04 4.02741309400026E-04 .999999911436931
  outer loop
    vertex 73.8004999316076 203 33.5
    vertex 37.6231686008103 189.144441325763 33.51
    vertex 73.8004999316076 178.170167844802 33.51
  endloop
endfacet
facet normal 5.65434293298279E-05 5.74095072285467E-04 .99999983360883
  outer loop
    vertex 73.8004999316076 203 33.5
    vertex 1.18086567607784E-14 192.85 33.51
    vertex 37.6231686008103 189.144441325763 33.51
  endloop
endfacet
facet normal -5.65434293298279E-05 5.74095072285467E-04 .99999983360883
  outer loop
    vertex -73.8004999316076 203 33.5
    vertex -37.6231686008103 189.144441325763 33.51
    vertex 1.18086567607784E-14 192.85 33.51
  endloop
endfacet
facet normal -1.22170240558173E-04 4.02741309400026E-04 .999999911436931
  outer loop
    vertex -73.8004999316076 203 33.5
    vertex -73.8004999316076 178.170167844802 33.51
    vertex -37.6231686008103 189.144441325763 33.51
  endloop
endfacet
facet normal 0 9.85221196718502E-04 .999999514669479
  outer loop
    vertex 73.8004999316076 203 33.5
    vertex -73.8004999316076 203 33.5
    vertex 1.18086567607784E-14 192.85 33.51
  endloop
endfacet
facet normal -4.02741309400026E-04 1.22170240558173E-04 .999999911436931
  outer loop
    vertex -203 73.8004999316076 33.5
    vertex -189.144441325763 37.6231686008103 33.51
    vertex -178.170167844802 73.8004999316076 33.51
  endloop
endfacet
facet normal -5.74095072285467E-04 5.65434293298279E-05 .99999983360883
  outer loop
    vertex -203 73.8004999316076 33.5
    vertex -192.85 0 33.51
    vertex -189.144441325763 37.6231686008103 33.51
  endloop
endfacet
facet normal -5.74095072285467E-04 -5.65434293298279E-05 .99999983360883
  outer loop
    vertex -203 -73.8004999316076 33.5
    vertex -189.144441325763 -37.6231686008103 33.51
    vertex -192.85 0 33.51
  endloop
endfacet
facet normal -4.02741309400026E-04 -1.22170240558173E-04 .999999911436931
  outer loop
    vertex -203 -73.8004999316076 33.5
    vertex -178.170167844802 -73.8004999316076 33.51
    vertex -189.144441325763 -37.6231686008103 33.51
  endloop
endfacet
facet normal -9.85221196718502E-04 0 .999999514669479
  outer loop
    vertex -203 73.8004999316076 33.5
    vertex -203 -73.8004999316076 33.5
    vertex -192.85 0 33.51
  endloop
endfacet
facet normal -1.22170240558173E-04 -4.02741309400026E-04 .999999911436931
  outer loop
    vertex -73.8004999316076 -203 33.5
    vertex -37.6231686008103 -189.144441325763 33.51
    vertex -73.8004999316076 -178.170167844802 33.51
  endloop
endfacet
facet normal -5.65434293298279E-05 -5.74095072285467E-04 .99999983360883
  outer loop
    vertex -73.8004999316076 -203 33.5
    vertex -1.18086567607784E-14 -192.85 33.51
    vertex -37.6231686008103 -189.144441325763 33.51
  endloop
endfacet
facet normal 5.65434293298279E-05 -5.74095072285467E-04 .99999983360883
  outer loop
    vertex 73.8004999316076 -203 33.5
    vertex 37.6231686008103 -189.144441325763 33.51
    vertex -1.18086567607784E-14 -192.85 33.51
  endloop
endfacet
facet normal 1.22170240558173E-04 -4.02741309400026E-04 .999999911436931
  outer loop
    vertex 73.8004999316076 -203 33.5
    vertex 73.8004999316076 -178.170167844802 33.51
    vertex 37.6231686008103 -189.144441325763 33.51
  endloop
endfacet
facet normal 0 -9.85221196718502E-04 .999999514669479
  outer loop
    vertex -73.8004999316076 -203 33.5
    vertex 73.8004999316076 -203 33.5
    vertex -1.18086567607784E-14 -192.85 33.51
  endloop
endfacet
facet normal 4.02741309400026E-04 -1.22170240558173E-04 .999999911436931
  outer loop
    vertex 203 -73.8004999316076 33.5
    vertex 189.144441325763 -37.6231686008103 33.51
    vertex 178.170167844802 -73.8004999316076 33.51
  endloop
endfacet
facet normal 5.74095072285467E-04 -5.65434293298279E-05 .99999983360883
  outer loop
    vertex 203 -73.8004999316076 33.5
    vertex 192.85 0 33.51
    vertex 189.144441325763 -37.6231686008103 33.51
  endloop
endfacet
facet normal 5.74095072285467E-04 5.65434293298279E-05 .99999983360883
  outer loop
    vertex 203 73.8004999316076 33.5
    vertex 189.144441325763 37.6231686008103 33.51
    vertex 192.85 0 33.51
  endloop
endfacet
facet normal 4.02741309400026E-04 1.22170240558173E-04 .999999911436931
  outer loop
    vertex 203 73.8004999316076 33.5
    vertex 178.170167844802 73.8004999316076 33.51
    vertex 189.144441325763 37.6231686008103 33.51
  endloop
endfacet
facet normal 9.85221196718502E-04 0 .999999514669479
  outer loop
    vertex 203 -73.8004999316076 33.5
    vertex 203 73.8004999316076 33.5
    vertex 192.85 0 33.51
  endloop
endfacet
facet normal 1 0 0
  outer loop
    vertex 220.5 -16 0
    vertex 220.5 16 10
    vertex 220.5 -16 10
  endloop
endfacet
facet normal 1 0 0
  outer loop
    vertex 220.5 -16 0
    vertex 220.5 16 0
    vertex 220.5 16 10
  endloop
endfacet
facet normal 0 1 0
  outer loop
    vertex 220.5 16 10
    vertex 220.5 16 0
    vertex 203 16 10
  endloop
endfacet
facet normal 0 1 0
  outer loop
    vertex 203 16 10
    vertex 220.5 16 0
    vertex 203 16 2
  endloop
endfacet
facet normal 0 1 0
  outer loop
    vertex 203 16 2
    vertex 220.5 16 0
    vertex 94.5 16 2
  endloop
endfacet
facet normal 0 1 0
  outer loop
    vertex 94.5 16 0
    vertex 94.5 16 2
    vertex 220.5 16 0
  endloop
endfacet
facet normal -1 0 0
  outer loop
    vertex 94.5 16 0
    vertex 94.5 -16 2
    vertex 94.5 16 2
  endloop
endfacet
facet normal -1 0 0
  outer loop
    vertex 94.5 16 0
    vertex 94.5 -16 0
    vertex 94.5 -16 2
  endloop
endfacet
facet normal 0 -1 0
  outer loop
    vertex 203 -16 2
    vertex 94.5 -16 2
    vertex 94.5 -16 0
  endloop
endfacet
facet normal 0 -1 0
  outer loop
    vertex 203 -16 2
    vertex 94.5 -16 0
    vertex 220.5 -16 0
  endloop
endfacet
facet normal 0 -1 0
  outer loop
    vertex 203 -16 2
    vertex 220.5 -16 10
    vertex 203 -16 10
  endloop
endfacet
facet normal 0 -1 0
  outer loop
    vertex 203 -16 2
    vertex 220.5 -16 0
    vertex 220.5 -16 10
  endloop
endfacet
facet normal -1 0 0
  outer loop
    vertex 203 16 10
    vertex 203 -16 2
    vertex 203 -16 10
  endloop
endfacet
facet normal -1 0 0
  outer loop
    vertex 203 16 10
    vertex 203 16 2
    vertex 203 -16 2
  endloop
endfacet
facet normal 0 0 1
  outer loop
    vertex 220.5 -16 10
    vertex 220.5 16 10
    vertex 203 -16 10
  endloop
endfacet
facet normal 0 0 1
  outer loop
    vertex 203 -16 10
    vertex 220.5 16 10
    vertex 203 16 10
  endloop
endfacet
facet normal 0 0 1
  outer loop
    vertex 203 -16 2
    vertex 203 16 2
    vertex 94.5 -16 2
  endloop
endfacet
facet normal 0 0 1
  outer loop
    vertex 203 16 2
    vertex 94.5 16 2
    vertex 94.5 -16 2
  endloop
endfacet
facet normal 0 0 -1
  outer loop
    vertex 220.5 -16 0
    vertex 94.5 -16 0
    vertex 220.5 16 0
  endloop
endfacet
facet normal 0 0 -1
  outer loop
    vertex 220.5 16 0
    vertex 94.5 -16 0
    vertex 94.5 16 0
  endloop
endfacet
facet normal -1 0 0
  outer loop
    vertex -220.5 16 0
    vertex -220.5 -16 10
    vertex -220.5 16 10
  endloop
endfacet
facet normal -1 0 0
  outer loop
    vertex -220.5 16 0
    vertex -220.5 -16 0
    vertex -220.5 -16 10
  endloop
endfacet
facet normal 0 -1 0
  outer loop
    vertex -220.5 -16 10
    vertex -220.5 -16 0
    vertex -203 -16 10
  endloop
endfacet
facet normal 0 -1 0
  outer loop
    vertex -203 -16 10
    vertex -220.5 -16 0
    vertex -203 -16 2
  endloop
endfacet
facet normal 0 -1 0
  outer loop
    vertex -203 -16 2
    vertex -220.5 -16 0
    vertex -94.5 -16 2
  endloop
endfacet
facet normal 0 -1 0
  outer loop
    vertex -94.5 -16 0
    vertex -94.5 -16 2
    vertex -220.5 -16 0
  endloop
endfacet
facet normal 1 0 0
  outer loop
    vertex -94.5 -16 0
    vertex -94.5 16 2
    vertex -94.5 -16 2
  endloop
endfacet
facet normal 1 0 0
  outer loop
    vertex -94.5 -16 0
    vertex -94.5 16 0
    vertex -94.5 16 2
  endloop
endfacet
facet normal 0 1 0
  outer loop
    vertex -203 16 2
    vertex -94.5 16 2
    vertex -94.5 16 0
  endloop
endfacet
facet normal 0 1 0
  outer loop
    vertex -203 16 2
    vertex -94.5 16 0
    vertex -220.5 16 0
  endloop
endfacet
facet normal 0 1 0
  outer loop
    vertex -203 16 2
    vertex -220.5 16 10
    vertex -203 16 10
  endloop
endfacet
facet normal 0 1 0
  outer loop
    vertex -203 16 2
    vertex -220.5 16 0
    vertex -220.5 16 10
  endloop
endfacet
facet normal 1 0 0
  outer loop
    vertex -203 -16 10
    vertex -203 16 2
    vertex -203 16 10
  endloop
endfacet
facet normal 1 0 0
  outer loop
    vertex -203 -16 10
    vertex -203 -16 2
    vertex -203 16 2
  endloop
endfacet
facet normal 0 0 1
  outer loop
    vertex -220.5 16 10
    vertex -220.5 -16 10
    vertex -203 16 10
  endloop
endfacet
facet normal 0 0 1
  outer loop
    vertex -203 16 10
    vertex -220.5 -16 10
    vertex -203 -16 10
  endloop
endfacet
facet normal 0 0 1
  outer loop
    vertex -203 16 2
    vertex -203 -16 2
    vertex -94.5 16 2
  endloop
endfacet
facet normal 0 0 1
  outer loop
    vertex -203 -16 2
    vertex -94.5 -16 2
    vertex -94.5 16 2
  endloop
endfacet
facet normal 0 0 -1
  outer loop
    vertex -220.5 16 0
    vertex -94.5 16 0
    vertex -220.5 -16 0
  endloop
endfacet
facet normal 0 0 -1
  outer loop
    vertex -220.5 -16 0
    vertex -94.5 16 0
    vertex -94.5 -16 0
  endloop
endfacet
endsolid PCAP_SVP_F8-M
