solid STA_RMCF2512-L
facet normal 1 0 0
  outer loop
    vertex 90 -67 1
    vertex 90 67 27
    vertex 90 -67 27
  endloop
endfacet
facet normal 1 0 0
  outer loop
    vertex 90 -67 1
    vertex 90 67 1
    vertex 90 67 27
  endloop
endfacet
facet normal -1 0 0
  outer loop
    vertex -90 67 1
    vertex -90 -67 27
    vertex -90 67 27
  endloop
endfacet
facet normal -1 0 0
  outer loop
    vertex -90 67 1
    vertex -90 -67 1
    vertex -90 -67 27
  endloop
endfacet
facet normal 0 -1 0
  outer loop
    vertex -90 -67 1
    vertex 90 -67 27
    vertex -90 -67 27
  endloop
endfacet
facet normal 0 -1 0
  outer loop
    vertex -90 -67 1
    vertex 90 -67 1
    vertex 90 -67 27
  endloop
endfacet
facet normal 0 1 0
  outer loop
    vertex 90 67 1
    vertex -90 67 27
    vertex 90 67 27
  endloop
endfacet
facet normal 0 1 0
  outer loop
    vertex 90 67 1
    vertex -90 67 1
    vertex -90 67 27
  endloop
endfacet
facet normal 0 0 -1
  outer loop
    vertex 90 -67 1
    vertex -90 67 1
    vertex 90 67 1
  endloop
endfacet
facet normal 0 0 -1
  outer loop
    vertex 90 -67 1
    vertex -90 -67 1
    vertex -90 67 1
  endloop
endfacet
facet normal 0 0 1
  outer loop
    vertex 90 -67 27
    vertex 90 67 27
    vertex -90 67 27
  endloop
endfacet
facet normal 0 0 1
  outer loop
    vertex 90 -67 27
    vertex -90 67 27
    vertex -90 -67 27
  endloop
endfacet
facet normal 0 0 -1
  outer loop
    vertex -54 -67.1 .9
    vertex -72 -67.1 .9
    vertex -54 67.1 .9
  endloop
endfacet
facet normal 0 0 -1
  outer loop
    vertex -54 67.1 .9
    vertex -72 -67.1 .9
    vertex -72 67.1 .9
  endloop
endfacet
facet normal 0 0 1
  outer loop
    vertex -54 -67.1 27.1
    vertex -54 67.1 27.1
    vertex -72 -67.1 27.1
  endloop
endfacet
facet normal 0 0 1
  outer loop
    vertex -72 -67.1 27.1
    vertex -54 67.1 27.1
    vertex -72 67.1 27.1
  endloop
endfacet
facet normal 0 1 0
  outer loop
    vertex -54 67.1 27.1
    vertex -54 67.1 .9
    vertex -72 67.1 .9
  endloop
endfacet
facet normal 0 1 0
  outer loop
    vertex -54 67.1 27.1
    vertex -72 67.1 .9
    vertex -72 67.1 27.1
  endloop
endfacet
facet normal 0 -1 0
  outer loop
    vertex -54 -67.1 .9
    vertex -54 -67.1 27.1
    vertex -72 -67.1 .9
  endloop
endfacet
facet normal 0 -1 0
  outer loop
    vertex -72 -67.1 27.1
    vertex -72 -67.1 .9
    vertex -54 -67.1 27.1
  endloop
endfacet
facet normal 0 0 -1
  outer loop
    vertex -54 -67 1
    vertex -72 -67 1
    vertex -54 67 1
  endloop
endfacet
facet normal 0 0 -1
  outer loop
    vertex -54 67 1
    vertex -72 -67 1
    vertex -72 67 1
  endloop
endfacet
facet normal 0 0 1
  outer loop
    vertex -54 -67 27
    vertex -54 67 27
    vertex -72 -67 27
  endloop
endfacet
facet normal 0 0 1
  outer loop
    vertex -72 -67 27
    vertex -54 67 27
    vertex -72 67 27
  endloop
endfacet
facet normal 0 1 0
  outer loop
    vertex -54 67 27
    vertex -54 67 1
    vertex -72 67 1
  endloop
endfacet
facet normal 0 1 0
  outer loop
    vertex -54 67 27
    vertex -72 67 1
    vertex -72 67 27
  endloop
endfacet
facet normal 0 -1 0
  outer loop
    vertex -54 -67 1
    vertex -54 -67 27
    vertex -72 -67 1
  endloop
endfacet
facet normal 0 -1 0
  outer loop
    vertex -72 -67 27
    vertex -72 -67 1
    vertex -54 -67 27
  endloop
endfacet
facet normal -1 0 0
  outer loop
    vertex -72 67.1 27.1
    vertex -72 67 27
    vertex -72 -67.1 27.1
  endloop
endfacet
facet normal -1 0 0
  outer loop
    vertex -72 67 27
    vertex -72 -67 27
    vertex -72 -67.1 27.1
  endloop
endfacet
facet normal -1 0 0
  outer loop
    vertex -72 -67.1 27.1
    vertex -72 -67 27
    vertex -72 -67.1 .9
  endloop
endfacet
facet normal -1 0 0
  outer loop
    vertex -72 -67 27
    vertex -72 -67 1
    vertex -72 -67.1 .9
  endloop
endfacet
facet normal -1 0 0
  outer loop
    vertex -72 67.1 .9
    vertex -72 -67.1 .9
    vertex -72 67 1
  endloop
endfacet
facet normal -1 0 0
  outer loop
    vertex -72 67 1
    vertex -72 -67.1 .9
    vertex -72 -67 1
  endloop
endfacet
facet normal -1 0 0
  outer loop
    vertex -72 67.1 27.1
    vertex -72 67.1 .9
    vertex -72 67 27
  endloop
endfacet
facet normal -1 0 0
  outer loop
    vertex -72 67 27
    vertex -72 67.1 .9
    vertex -72 67 1
  endloop
endfacet
facet normal 1 0 0
  outer loop
    vertex -54 -67.1 27.1
    vertex -54 -67 27
    vertex -54 67.1 27.1
  endloop
endfacet
facet normal 1 0 0
  outer loop
    vertex -54 -67 27
    vertex -54 67 27
    vertex -54 67.1 27.1
  endloop
endfacet
facet normal 1 0 0
  outer loop
    vertex -54 67.1 27.1
    vertex -54 67 27
    vertex -54 67.1 .9
  endloop
endfacet
facet normal 1 0 0
  outer loop
    vertex -54 67 27
    vertex -54 67 1
    vertex -54 67.1 .9
  endloop
endfacet
facet normal 1 0 0
  outer loop
    vertex -54 -67.1 .9
    vertex -54 67.1 .9
    vertex -54 -67 1
  endloop
endfacet
facet normal 1 0 0
  outer loop
    vertex -54 -67 1
    vertex -54 67.1 .9
    vertex -54 67 1
  endloop
endfacet
facet normal 1 0 0
  outer loop
    vertex -54 -67.1 27.1
    vertex -54 -67.1 .9
    vertex -54 -67 27
  endloop
endfacet
facet normal 1 0 0
  outer loop
    vertex -54 -67 27
    vertex -54 -67.1 .9
    vertex -54 -67 1
  endloop
endfacet
facet normal 1 0 0
  outer loop
    vertex 128 -68 0
    vertex 128 68 28
    vertex 128 -68 28
  endloop
endfacet
facet normal 1 0 0
  outer loop
    vertex 128 -68 0
    vertex 128 68 0
    vertex 128 68 28
  endloop
endfacet
facet normal -1 0 0
  outer loop
    vertex 90 68 0
    vertex 90 -68 28
    vertex 90 68 28
  endloop
endfacet
facet normal -1 0 0
  outer loop
    vertex 90 68 0
    vertex 90 -68 0
    vertex 90 -68 28
  endloop
endfacet
facet normal 0 -1 0
  outer loop
    vertex 90 -68 0
    vertex 128 -68 28
    vertex 90 -68 28
  endloop
endfacet
facet normal 0 -1 0
  outer loop
    vertex 90 -68 0
    vertex 128 -68 0
    vertex 128 -68 28
  endloop
endfacet
facet normal 0 1 0
  outer loop
    vertex 128 68 0
    vertex 90 68 28
    vertex 128 68 28
  endloop
endfacet
facet normal 0 1 0
  outer loop
    vertex 128 68 0
    vertex 90 68 0
    vertex 90 68 28
  endloop
endfacet
facet normal 0 0 -1
  outer loop
    vertex 128 -68 0
    vertex 90 68 0
    vertex 128 68 0
  endloop
endfacet
facet normal 0 0 -1
  outer loop
    vertex 128 -68 0
    vertex 90 -68 0
    vertex 90 68 0
  endloop
endfacet
facet normal 0 0 1
  outer loop
    vertex 128 -68 28
    vertex 128 68 28
    vertex 90 68 28
  endloop
endfacet
facet normal 0 0 1
  outer loop
    vertex 128 -68 28
    vertex 90 68 28
    vertex 90 -68 28
  endloop
endfacet
facet normal -1 0 0
  outer loop
    vertex -128 68 0
    vertex -128 -68 28
    vertex -128 68 28
  endloop
endfacet
facet normal -1 0 0
  outer loop
    vertex -128 68 0
    vertex -128 -68 0
    vertex -128 -68 28
  endloop
endfacet
facet normal 1 0 0
  outer loop
    vertex -90 -68 0
    vertex -90 68 28
    vertex -90 -68 28
  endloop
endfacet
facet normal 1 0 0
  outer loop
    vertex -90 -68 0
    vertex -90 68 0
    vertex -90 68 28
  endloop
endfacet
facet normal 0 1 0
  outer loop
    vertex -90 68 0
    vertex -128 68 28
    vertex -90 68 28
  endloop
endfacet
facet normal 0 1 0
  outer loop
    vertex -90 68 0
    vertex -128 68 0
    vertex -128 68 28
  endloop
endfacet
facet normal 0 -1 0
  outer loop
    vertex -128 -68 0
    vertex -90 -68 28
    vertex -128 -68 28
  endloop
endfacet
facet normal 0 -1 0
  outer loop
    vertex -128 -68 0
    vertex -90 -68 0
    vertex -90 -68 28
  endloop
endfacet
facet normal 0 0 -1
  outer loop
    vertex -128 68 0
    vertex -90 -68 0
    vertex -128 -68 0
  endloop
endfacet
facet normal 0 0 -1
  outer loop
    vertex -128 68 0
    vertex -90 68 0
    vertex -90 -68 0
  endloop
endfacet
facet normal 0 0 1
  outer loop
    vertex -128 68 28
    vertex -128 -68 28
    vertex -90 -68 28
  endloop
endfacet
facet normal 0 0 1
  outer loop
    vertex -128 68 28
    vertex -90 -68 28
    vertex -90 68 28
  endloop
endfacet
endsolid STA_RMCF2512-L
