M48
;Layer_Color=9474304
;FILE_FORMAT=4:4
METRIC,LZ
;TYPE=PLATED
T1F00S00C0.3000
T2F00S00C0.8500
T3F00S00C0.9140
T4F00S00C1.0000
T5F00S00C1.0160
T6F00S00C1.1430
T7F00S00C1.4000
T8F00S00C4.0000
%
T01
X008Y00484
X0085019Y0048925
X00872Y00469
X00882
X00909Y00458
X0093525Y0044325
X00939Y00562
X00954053Y00578
X00908Y0056075
X00881038Y00585
X00839216
X00807862Y005775
X00797Y00578
X00812177Y00549
X00818109Y00665353
X00804005Y0066711
X00811959Y00676157
X00799109Y00680353
X00805609Y00712987
X00816214Y00718353
X00810109Y00729353
X00813109Y00751353
X00812109Y00768354
X00804339Y00762009
X00794359Y00756354
X00797809Y00745822
X00824647Y00760518
X00817859Y007896
X007945Y0078675
X00843159Y00741354
X00853859Y00729103
X0085019Y00715853
X00849109Y00708275
X00841109Y00715657
X00845109Y00696353
X00845109Y00682936
X00832138Y00671353
X00827109Y00693354
X00825109Y00703354
X00876047Y00697853
X00892109Y00710014
X00915109Y00717354
X00931859Y00729103
X00930069Y00700033
X00913109Y00676354
X00897109Y00677953
X00898109Y00666354
X00876109Y00660353
X00869761Y00674702
X0088725Y00640477
X00949609Y00676603
X00979289Y00693354
X00983109Y00731234
X01019029Y00714748
X00997553Y00777596
X00924109Y00762353
X00901109Y00763354
X00903359Y00757354
X00901109Y00788353
X00870859Y00761354
X00882109Y00735503
X00784109Y00748204
X00769109Y00750353
X00736109Y00738103
X00731859Y00779646
X00702151Y00783184
X00694609Y00763103
X0066675Y00768
X0065675Y00775391
X00601798Y00742541
X00579446Y00743314
X00579192Y0069861
X00601798Y00698353
X006135Y007225
X0060129Y00653398
X0057843Y00653289
X00646Y0063125
X00678103Y00637104
X006825Y00643
X00687Y00631
X00690109Y00672353
X00704009Y00672406
X00714Y00658
X007235Y00654
X00729022Y0064375
X007385Y006595
X00731521Y00676371
X00722085Y00698103
X00692835Y00697853
X00777109Y00695353
Y00674307
X00784659Y00662353
X00774109Y00651911
X00768737Y00549
X0075434Y0056
X00731Y00484
X00757Y00454959
X0078625Y0042975
X00676478Y00479
X00595332Y00474
X00598Y00458
X00591Y00449
X00630133Y00522
X00603Y0056678
X00492Y00682
X00488Y0075425
X007885Y0078725
X00779193Y00807996
X007532Y00812137
X00745359Y00821603
X00734309Y00831603
X00663359Y00825104
X00638262Y00797853
X00535889Y0085475
X00802402Y00808354
X00811572Y00797353
X00825105Y00807352
X00842109Y00837201
X00899335Y00833637
X00922859Y00826353
X00948357Y00832098
X00942109Y00812137
X00925109Y00795353
X00911019Y00806713
X00885109Y00795964
T02
X00985031Y00755992
Y00805992
T03
X00817906Y00610822
X00843102Y00610853
X00868295
X00894108
X00919301
X009447Y00610822
X00969893
X00995706
X00792713
X007669
X00741708
X00716308Y00610853
X00691115
X00665302
X00640109
Y00860853
X00665302
X00691115
X00716308
X00741708Y00860822
X007669
X00792713
X00817906
X00843102Y00860853
X00868295
X00894108
X00919301
T04
X00639305Y00677953
Y00703354
Y00728754
X00664705
Y00703354
Y00677953
T05
X00526129Y00812137
X00543401
X00560672
X00577945
X00595217
T06
X00805303Y00500028
Y0053
X00835275
X00865247
X00895219
Y00500028
X00865247
X00835275
X00925191
Y0053
X00955163
Y00500028
X00984881Y0049063
X00775331Y00500028
Y0053
X00745359
X00715387
X00685415
Y00500028
X00715387
X00745359
X00655443Y0049063
X00583972
X00554Y00500028
Y0053
X00524028
Y00500028
X00494056Y0049063
T07
X01012031Y00745992
Y00815992
T08
X00995Y00435
X00475
Y00865
X00995
M30
