M48
;Layer_Color=9474304
;FILE_FORMAT=2:5
INCH,LZ
;TYPE=PLATED
T1F00S00C0.01181
T2F00S00C0.03346
T3F00S00C0.03598
T4F00S00C0.03937
T5F00S00C0.04000
T6F00S00C0.04500
T7F00S00C0.05512
T8F00S00C0.15748
%
T01
X0314961Y0190551
X033472Y0192618
X0343307Y0184646
X0347244
X0357874Y0180315
X0368209Y0174508
X0369685Y022126
X0375612Y0227559
X035748Y0220768
X0346866Y0230315
X03304
X0318056Y0227362
X0313779Y0227559
X0319755Y0216142
X032209Y026195
X0316537Y0262642
X0319669Y0266204
X031461Y0267856
X0317169Y0280704
X0321344Y0282816
X0318941Y0287147
X0320122Y0295808
X0319728Y0302501
X0316669Y0300004
X031274Y0297777
X0314098Y0293631
X0324664Y0299417
X0321992Y0310866
X0312795Y0309744
X0331952Y0291871
X0336165Y0287049
X033472Y0281832
X0334295Y0278848
X0331145Y0281755
X033272Y0274155
X033272Y0268872
X0327613Y0264312
X0325634Y0272974
X0324846Y0276911
X03449Y0274745
X0351224Y0279533
X0360279Y0282423
X0366874Y0287049
X0366169Y0275604
X0359492Y0266281
X0353193Y0266911
X0353586Y0262344
X0344925Y0259982
X0342425Y0265631
X0349311Y0252156
X0373862Y0266379
X0385547Y0272974
X0387051Y0287887
X0401193Y0281397
X0392737Y030614
X0363823Y0300139
X0354767Y0300533
X0355653Y0298171
X0354767Y0310375
X0342858Y0299745
X0347287Y0289568
X0308704Y0294569
X0302799Y0295415
X0289807Y0290592
X0288134Y0306947
X0276437Y030834
X0273468Y0300434
X02625Y0302362
X0258563Y0305272
X0236928Y0292339
X0228128Y0292643
X0228028Y0275043
X0236928Y0274942
X0241535Y0284449
X0236728Y0257243
X0227728Y02572
X0254331Y0248524
X026697Y0250828
X0268701Y025315
X0270472Y0248425
X0271696Y0264706
X0277169Y0264727
X0281102Y0259055
X0284842Y025748
X0287016Y0253445
X0290748Y0259646
X0288Y0266288
X0284285Y0274844
X0272769Y0274745
X0305948Y0273761
Y0265475
X0308921Y0260769
X0304767Y0256658
X0302652Y0216142
X0296984Y0220472
X0287795Y0190551
X0298031Y0179118
X0309547Y0169193
X026633Y0188583
X0234383Y0186614
X0235433Y0180315
X0232677Y0176772
X0248084Y0205512
X0237402Y0223142
X0193701Y0268504
X0192126Y0296949
X0310433Y0309941
X0306769Y0318109
X0296535Y0319739
X0293448Y0323466
X0289098Y0327403
X0261165Y0324844
X0251284Y0314116
X021098Y0336516
X0315906Y0318249
X0319517Y0313919
X0324845Y0317855
X0331539Y0329607
X0354069Y0328204
X036333Y0325336
X0373369Y0327598
X0370909Y0319739
X0364216Y0313131
X0358669Y0317604
X0348468Y0313372
T02
X0387808Y0297635
Y031732
T03
X032201Y0240481
X033193Y0240493
X0341848
X0352011
X0361929
X0371929Y0240481
X0381848
X039201
X0312092
X0301929
X0292011
X0282011Y0240493
X0272093
X026193
X0252011
Y0338919
X026193
X0272093
X0282011
X0292011Y0338906
X0301929
X0312092
X032201
X033193Y0338919
X0341848
X0352011
X0361929
T04
X0251695Y0266911
Y0276911
Y0286911
X0261695
Y0276911
Y0266911
T05
X0207137Y0319739
X0213937
X0220737
X0227537
X0234337
T06
X0317049Y0196861
Y0208661
X0328849
X0340649
X0352449
Y0196861
X0340649
X0328849
X0364248
Y0208661
X0376048
Y0196861
X0387749Y0193161
X0305248Y0196861
Y0208661
X0293448
X0281648
X0269848
Y0196861
X0281648
X0293448
X0258049Y0193161
X022991
X021811Y0196861
Y0208661
X020631
Y0196861
X019451Y0193161
T07
X0398437Y0293698
Y0321257
T08
X0391732Y017126
X0187008
Y0340551
X0391732
M30
