solid U2-I-M
facet normal 0 0 1
  outer loop
    vertex 0 0 230
    vertex -123.5 0 230
    vertex -121.126982129799 -24.0936547689918 230
  endloop
endfacet
facet normal 0 0 1
  outer loop
    vertex 0 0 230
    vertex -121.126982129799 -24.0936547689918 230
    vertex -114.099122265144 -47.2614038970886 230
  endloop
endfacet
facet normal 0 0 1
  outer loop
    vertex 0 0 230
    vertex -114.099122265144 -47.2614038970886 230
    vertex -102.686497119364 -68.6129237779209 230
  endloop
endfacet
facet normal 0 0 1
  outer loop
    vertex 0 0 230
    vertex -102.686497119364 -68.6129237779209 230
    vertex -87.3276874765386 -87.3276874765386 230
  endloop
endfacet
facet normal 0 0 1
  outer loop
    vertex 0 0 230
    vertex -87.3276874765386 -87.3276874765386 230
    vertex -68.6129237779209 -102.686497119364 230
  endloop
endfacet
facet normal 0 0 1
  outer loop
    vertex 0 0 230
    vertex -68.6129237779209 -102.686497119364 230
    vertex -47.2614038970886 -114.099122265144 230
  endloop
endfacet
facet normal 0 0 1
  outer loop
    vertex 0 0 230
    vertex -47.2614038970886 -114.099122265144 230
    vertex -24.0936547689919 -121.126982129799 230
  endloop
endfacet
facet normal 0 0 1
  outer loop
    vertex 0 0 230
    vertex -24.0936547689919 -121.126982129799 230
    vertex -7.56219398473491E-15 -123.5 230
  endloop
endfacet
facet normal 0 0 1
  outer loop
    vertex 0 0 230
    vertex -7.56219398473491E-15 -123.5 230
    vertex 24.0936547689919 -121.126982129799 230
  endloop
endfacet
facet normal 0 0 1
  outer loop
    vertex 0 0 230
    vertex 24.0936547689919 -121.126982129799 230
    vertex 47.2614038970886 -114.099122265144 230
  endloop
endfacet
facet normal 0 0 1
  outer loop
    vertex 0 0 230
    vertex 47.2614038970886 -114.099122265144 230
    vertex 68.6129237779209 -102.686497119364 230
  endloop
endfacet
facet normal 0 0 1
  outer loop
    vertex 0 0 230
    vertex 68.6129237779209 -102.686497119364 230
    vertex 87.3276874765386 -87.3276874765386 230
  endloop
endfacet
facet normal 0 0 1
  outer loop
    vertex 0 0 230
    vertex 87.3276874765386 -87.3276874765386 230
    vertex 102.686497119364 -68.6129237779209 230
  endloop
endfacet
facet normal 0 0 1
  outer loop
    vertex 0 0 230
    vertex 102.686497119364 -68.6129237779209 230
    vertex 114.099122265144 -47.2614038970886 230
  endloop
endfacet
facet normal 0 0 1
  outer loop
    vertex 0 0 230
    vertex 114.099122265144 -47.2614038970886 230
    vertex 121.126982129799 -24.0936547689918 230
  endloop
endfacet
facet normal 0 0 1
  outer loop
    vertex 0 0 230
    vertex 121.126982129799 -24.0936547689918 230
    vertex 123.5 0 230
  endloop
endfacet
facet normal 0 0 1
  outer loop
    vertex 0 0 230
    vertex 123.5 0 230
    vertex 121.126982129799 24.0936547689918 230
  endloop
endfacet
facet normal 0 0 1
  outer loop
    vertex 0 0 230
    vertex 121.126982129799 24.0936547689918 230
    vertex 114.099122265144 47.2614038970886 230
  endloop
endfacet
facet normal 0 0 1
  outer loop
    vertex 0 0 230
    vertex 114.099122265144 47.2614038970886 230
    vertex 102.686497119364 68.6129237779209 230
  endloop
endfacet
facet normal 0 0 1
  outer loop
    vertex 0 0 230
    vertex 102.686497119364 68.6129237779209 230
    vertex 87.3276874765386 87.3276874765386 230
  endloop
endfacet
facet normal 0 0 1
  outer loop
    vertex 0 0 230
    vertex 87.3276874765386 87.3276874765386 230
    vertex 68.6129237779209 102.686497119364 230
  endloop
endfacet
facet normal 0 0 1
  outer loop
    vertex 0 0 230
    vertex 68.6129237779209 102.686497119364 230
    vertex 47.2614038970886 114.099122265144 230
  endloop
endfacet
facet normal 0 0 1
  outer loop
    vertex 0 0 230
    vertex 47.2614038970886 114.099122265144 230
    vertex 24.0936547689919 121.126982129799 230
  endloop
endfacet
facet normal 0 0 1
  outer loop
    vertex 0 0 230
    vertex 24.0936547689919 121.126982129799 230
    vertex 7.56219398473491E-15 123.5 230
  endloop
endfacet
facet normal 0 0 1
  outer loop
    vertex 0 0 230
    vertex 7.56219398473491E-15 123.5 230
    vertex -24.0936547689919 121.126982129799 230
  endloop
endfacet
facet normal 0 0 1
  outer loop
    vertex 0 0 230
    vertex -24.0936547689919 121.126982129799 230
    vertex -47.2614038970886 114.099122265144 230
  endloop
endfacet
facet normal 0 0 1
  outer loop
    vertex 0 0 230
    vertex -47.2614038970886 114.099122265144 230
    vertex -68.6129237779209 102.686497119364 230
  endloop
endfacet
facet normal 0 0 1
  outer loop
    vertex 0 0 230
    vertex -68.6129237779209 102.686497119364 230
    vertex -87.3276874765386 87.3276874765386 230
  endloop
endfacet
facet normal 0 0 1
  outer loop
    vertex 0 0 230
    vertex -87.3276874765386 87.3276874765386 230
    vertex -102.686497119364 68.6129237779209 230
  endloop
endfacet
facet normal 0 0 1
  outer loop
    vertex 0 0 230
    vertex -102.686497119364 68.6129237779209 230
    vertex -114.099122265144 47.2614038970886 230
  endloop
endfacet
facet normal 0 0 1
  outer loop
    vertex 0 0 230
    vertex -114.099122265144 47.2614038970886 230
    vertex -121.126982129799 24.0936547689918 230
  endloop
endfacet
facet normal 0 0 1
  outer loop
    vertex 0 0 230
    vertex -121.126982129799 24.0936547689918 230
    vertex -123.5 0 230
  endloop
endfacet
facet normal -.995184726672197 -.098017140329559 0
  outer loop
    vertex -123.5 0 230
    vertex -121.126982129799 -24.0936547689918 24.81
    vertex -121.126982129799 -24.0936547689918 230
  endloop
endfacet
facet normal -.995184726672197 -.098017140329559 0
  outer loop
    vertex -123.5 0 230
    vertex -123.5 0 24.81
    vertex -121.126982129799 -24.0936547689918 24.81
  endloop
endfacet
facet normal -.956940335732209 -.29028467725446 0
  outer loop
    vertex -121.126982129799 -24.0936547689918 230
    vertex -114.099122265144 -47.2614038970886 24.81
    vertex -114.099122265144 -47.2614038970886 230
  endloop
endfacet
facet normal -.956940335732209 -.29028467725446 0
  outer loop
    vertex -121.126982129799 -24.0936547689918 230
    vertex -121.126982129799 -24.0936547689918 24.81
    vertex -114.099122265144 -47.2614038970886 24.81
  endloop
endfacet
facet normal -.881921264348348 -.471396736826011 0
  outer loop
    vertex -114.099122265144 -47.2614038970886 230
    vertex -102.686497119364 -68.6129237779209 47.6
    vertex -102.686497119364 -68.6129237779209 230
  endloop
endfacet
facet normal -.881921264348348 -.471396736826011 0
  outer loop
    vertex -114.099122265144 -47.2614038970886 230
    vertex -114.099122265144 -47.2614038970886 47.6
    vertex -102.686497119364 -68.6129237779209 47.6
  endloop
endfacet
facet normal -.773010453362743 -.634393284163639 0
  outer loop
    vertex -102.686497119364 -68.6129237779209 230
    vertex -87.3276874765386 -87.3276874765386 47.6
    vertex -87.3276874765386 -87.3276874765386 230
  endloop
endfacet
facet normal -.773010453362743 -.634393284163639 0
  outer loop
    vertex -102.686497119364 -68.6129237779209 230
    vertex -102.686497119364 -68.6129237779209 47.6
    vertex -87.3276874765386 -87.3276874765386 47.6
  endloop
endfacet
facet normal -.634393284163639 -.773010453362743 0
  outer loop
    vertex -87.3276874765386 -87.3276874765386 230
    vertex -68.6129237779209 -102.686497119364 47.6
    vertex -68.6129237779209 -102.686497119364 230
  endloop
endfacet
facet normal -.634393284163639 -.773010453362743 0
  outer loop
    vertex -87.3276874765386 -87.3276874765386 230
    vertex -87.3276874765386 -87.3276874765386 47.6
    vertex -68.6129237779209 -102.686497119364 47.6
  endloop
endfacet
facet normal -.471396736826011 -.881921264348348 0
  outer loop
    vertex -68.6129237779209 -102.686497119364 230
    vertex -47.2614038970886 -114.099122265144 47.6
    vertex -47.2614038970886 -114.099122265144 230
  endloop
endfacet
facet normal -.471396736826011 -.881921264348348 0
  outer loop
    vertex -68.6129237779209 -102.686497119364 230
    vertex -68.6129237779209 -102.686497119364 47.6
    vertex -47.2614038970886 -114.099122265144 47.6
  endloop
endfacet
facet normal -.290284677254461 -.956940335732209 0
  outer loop
    vertex -47.2614038970886 -114.099122265144 230
    vertex -24.0936547689919 -121.126982129799 24.81
    vertex -24.0936547689919 -121.126982129799 230
  endloop
endfacet
facet normal -.290284677254461 -.956940335732209 0
  outer loop
    vertex -47.2614038970886 -114.099122265144 230
    vertex -47.2614038970886 -114.099122265144 24.81
    vertex -24.0936547689919 -121.126982129799 24.81
  endloop
endfacet
facet normal -9.80171403295586E-02 -.995184726672197 0
  outer loop
    vertex -24.0936547689919 -121.126982129799 230
    vertex -7.56219398473491E-15 -123.5 24.81
    vertex -7.56219398473491E-15 -123.5 230
  endloop
endfacet
facet normal -9.80171403295586E-02 -.995184726672197 0
  outer loop
    vertex -24.0936547689919 -121.126982129799 230
    vertex -24.0936547689919 -121.126982129799 24.81
    vertex -7.56219398473491E-15 -123.5 24.81
  endloop
endfacet
facet normal 9.80171403295586E-02 -.995184726672197 0
  outer loop
    vertex -7.56219398473491E-15 -123.5 230
    vertex 24.0936547689919 -121.126982129799 24.81
    vertex 24.0936547689919 -121.126982129799 230
  endloop
endfacet
facet normal 9.80171403295586E-02 -.995184726672197 0
  outer loop
    vertex -7.56219398473491E-15 -123.5 230
    vertex -7.56219398473491E-15 -123.5 24.81
    vertex 24.0936547689919 -121.126982129799 24.81
  endloop
endfacet
facet normal .290284677254461 -.956940335732209 0
  outer loop
    vertex 24.0936547689919 -121.126982129799 230
    vertex 47.2614038970886 -114.099122265144 24.81
    vertex 47.2614038970886 -114.099122265144 230
  endloop
endfacet
facet normal .290284677254461 -.956940335732209 0
  outer loop
    vertex 24.0936547689919 -121.126982129799 230
    vertex 24.0936547689919 -121.126982129799 24.81
    vertex 47.2614038970886 -114.099122265144 24.81
  endloop
endfacet
facet normal .471396736826011 -.881921264348348 0
  outer loop
    vertex 47.2614038970886 -114.099122265144 230
    vertex 68.6129237779209 -102.686497119364 47.6
    vertex 68.6129237779209 -102.686497119364 230
  endloop
endfacet
facet normal .471396736826011 -.881921264348348 0
  outer loop
    vertex 47.2614038970886 -114.099122265144 230
    vertex 47.2614038970886 -114.099122265144 47.6
    vertex 68.6129237779209 -102.686497119364 47.6
  endloop
endfacet
facet normal .634393284163639 -.773010453362743 0
  outer loop
    vertex 68.6129237779209 -102.686497119364 230
    vertex 87.3276874765386 -87.3276874765386 47.6
    vertex 87.3276874765386 -87.3276874765386 230
  endloop
endfacet
facet normal .634393284163639 -.773010453362743 0
  outer loop
    vertex 68.6129237779209 -102.686497119364 230
    vertex 68.6129237779209 -102.686497119364 47.6
    vertex 87.3276874765386 -87.3276874765386 47.6
  endloop
endfacet
facet normal .773010453362743 -.634393284163639 0
  outer loop
    vertex 87.3276874765386 -87.3276874765386 230
    vertex 102.686497119364 -68.6129237779209 47.6
    vertex 102.686497119364 -68.6129237779209 230
  endloop
endfacet
facet normal .773010453362743 -.634393284163639 0
  outer loop
    vertex 87.3276874765386 -87.3276874765386 230
    vertex 87.3276874765386 -87.3276874765386 47.6
    vertex 102.686497119364 -68.6129237779209 47.6
  endloop
endfacet
facet normal .881921264348348 -.471396736826011 0
  outer loop
    vertex 102.686497119364 -68.6129237779209 230
    vertex 114.099122265144 -47.2614038970886 47.6
    vertex 114.099122265144 -47.2614038970886 230
  endloop
endfacet
facet normal .881921264348348 -.471396736826011 0
  outer loop
    vertex 102.686497119364 -68.6129237779209 230
    vertex 102.686497119364 -68.6129237779209 47.6
    vertex 114.099122265144 -47.2614038970886 47.6
  endloop
endfacet
facet normal .956940335732209 -.29028467725446 0
  outer loop
    vertex 114.099122265144 -47.2614038970886 230
    vertex 121.126982129799 -24.0936547689918 24.81
    vertex 121.126982129799 -24.0936547689918 230
  endloop
endfacet
facet normal .956940335732209 -.29028467725446 0
  outer loop
    vertex 114.099122265144 -47.2614038970886 230
    vertex 114.099122265144 -47.2614038970886 24.81
    vertex 121.126982129799 -24.0936547689918 24.81
  endloop
endfacet
facet normal .995184726672197 -.098017140329559 0
  outer loop
    vertex 121.126982129799 -24.0936547689918 230
    vertex 123.5 0 24.81
    vertex 123.5 0 230
  endloop
endfacet
facet normal .995184726672197 -.098017140329559 0
  outer loop
    vertex 121.126982129799 -24.0936547689918 230
    vertex 121.126982129799 -24.0936547689918 24.81
    vertex 123.5 0 24.81
  endloop
endfacet
facet normal .995184726672197 .098017140329559 0
  outer loop
    vertex 123.5 0 230
    vertex 121.126982129799 24.0936547689918 24.81
    vertex 121.126982129799 24.0936547689918 230
  endloop
endfacet
facet normal .995184726672197 .098017140329559 0
  outer loop
    vertex 123.5 0 230
    vertex 123.5 0 24.81
    vertex 121.126982129799 24.0936547689918 24.81
  endloop
endfacet
facet normal .956940335732209 .29028467725446 0
  outer loop
    vertex 121.126982129799 24.0936547689918 230
    vertex 114.099122265144 47.2614038970886 24.81
    vertex 114.099122265144 47.2614038970886 230
  endloop
endfacet
facet normal .956940335732209 .29028467725446 0
  outer loop
    vertex 121.126982129799 24.0936547689918 230
    vertex 121.126982129799 24.0936547689918 24.81
    vertex 114.099122265144 47.2614038970886 24.81
  endloop
endfacet
facet normal .881921264348348 .471396736826011 0
  outer loop
    vertex 114.099122265144 47.2614038970886 230
    vertex 102.686497119364 68.6129237779209 47.6
    vertex 102.686497119364 68.6129237779209 230
  endloop
endfacet
facet normal .881921264348348 .471396736826011 0
  outer loop
    vertex 114.099122265144 47.2614038970886 230
    vertex 114.099122265144 47.2614038970886 47.6
    vertex 102.686497119364 68.6129237779209 47.6
  endloop
endfacet
facet normal .773010453362743 .634393284163639 0
  outer loop
    vertex 102.686497119364 68.6129237779209 230
    vertex 87.3276874765386 87.3276874765386 47.6
    vertex 87.3276874765386 87.3276874765386 230
  endloop
endfacet
facet normal .773010453362743 .634393284163639 0
  outer loop
    vertex 102.686497119364 68.6129237779209 230
    vertex 102.686497119364 68.6129237779209 47.6
    vertex 87.3276874765386 87.3276874765386 47.6
  endloop
endfacet
facet normal .634393284163639 .773010453362743 0
  outer loop
    vertex 87.3276874765386 87.3276874765386 230
    vertex 68.6129237779209 102.686497119364 47.6
    vertex 68.6129237779209 102.686497119364 230
  endloop
endfacet
facet normal .634393284163639 .773010453362743 0
  outer loop
    vertex 87.3276874765386 87.3276874765386 230
    vertex 87.3276874765386 87.3276874765386 47.6
    vertex 68.6129237779209 102.686497119364 47.6
  endloop
endfacet
facet normal .471396736826011 .881921264348348 0
  outer loop
    vertex 68.6129237779209 102.686497119364 230
    vertex 47.2614038970886 114.099122265144 47.6
    vertex 47.2614038970886 114.099122265144 230
  endloop
endfacet
facet normal .471396736826011 .881921264348348 0
  outer loop
    vertex 68.6129237779209 102.686497119364 230
    vertex 68.6129237779209 102.686497119364 47.6
    vertex 47.2614038970886 114.099122265144 47.6
  endloop
endfacet
facet normal .290284677254461 .956940335732209 0
  outer loop
    vertex 47.2614038970886 114.099122265144 230
    vertex 24.0936547689919 121.126982129799 24.81
    vertex 24.0936547689919 121.126982129799 230
  endloop
endfacet
facet normal .290284677254461 .956940335732209 0
  outer loop
    vertex 47.2614038970886 114.099122265144 230
    vertex 47.2614038970886 114.099122265144 24.81
    vertex 24.0936547689919 121.126982129799 24.81
  endloop
endfacet
facet normal 9.80171403295586E-02 .995184726672197 0
  outer loop
    vertex 24.0936547689919 121.126982129799 230
    vertex 7.56219398473491E-15 123.5 24.81
    vertex 7.56219398473491E-15 123.5 230
  endloop
endfacet
facet normal 9.80171403295586E-02 .995184726672197 0
  outer loop
    vertex 24.0936547689919 121.126982129799 230
    vertex 24.0936547689919 121.126982129799 24.81
    vertex 7.56219398473491E-15 123.5 24.81
  endloop
endfacet
facet normal -9.80171403295586E-02 .995184726672197 0
  outer loop
    vertex 7.56219398473491E-15 123.5 230
    vertex -24.0936547689919 121.126982129799 24.81
    vertex -24.0936547689919 121.126982129799 230
  endloop
endfacet
facet normal -9.80171403295586E-02 .995184726672197 0
  outer loop
    vertex 7.56219398473491E-15 123.5 230
    vertex 7.56219398473491E-15 123.5 24.81
    vertex -24.0936547689919 121.126982129799 24.81
  endloop
endfacet
facet normal -.290284677254461 .956940335732209 0
  outer loop
    vertex -24.0936547689919 121.126982129799 230
    vertex -47.2614038970886 114.099122265144 24.81
    vertex -47.2614038970886 114.099122265144 230
  endloop
endfacet
facet normal -.290284677254461 .956940335732209 0
  outer loop
    vertex -24.0936547689919 121.126982129799 230
    vertex -24.0936547689919 121.126982129799 24.81
    vertex -47.2614038970886 114.099122265144 24.81
  endloop
endfacet
facet normal -.471396736826011 .881921264348348 0
  outer loop
    vertex -47.2614038970886 114.099122265144 230
    vertex -68.6129237779209 102.686497119364 47.6
    vertex -68.6129237779209 102.686497119364 230
  endloop
endfacet
facet normal -.471396736826011 .881921264348348 0
  outer loop
    vertex -47.2614038970886 114.099122265144 230
    vertex -47.2614038970886 114.099122265144 47.6
    vertex -68.6129237779209 102.686497119364 47.6
  endloop
endfacet
facet normal -.634393284163639 .773010453362743 0
  outer loop
    vertex -68.6129237779209 102.686497119364 230
    vertex -87.3276874765386 87.3276874765386 47.6
    vertex -87.3276874765386 87.3276874765386 230
  endloop
endfacet
facet normal -.634393284163639 .773010453362743 0
  outer loop
    vertex -68.6129237779209 102.686497119364 230
    vertex -68.6129237779209 102.686497119364 47.6
    vertex -87.3276874765386 87.3276874765386 47.6
  endloop
endfacet
facet normal -.773010453362743 .634393284163639 0
  outer loop
    vertex -87.3276874765386 87.3276874765386 230
    vertex -102.686497119364 68.6129237779209 47.6
    vertex -102.686497119364 68.6129237779209 230
  endloop
endfacet
facet normal -.773010453362743 .634393284163639 0
  outer loop
    vertex -87.3276874765386 87.3276874765386 230
    vertex -87.3276874765386 87.3276874765386 47.6
    vertex -102.686497119364 68.6129237779209 47.6
  endloop
endfacet
facet normal -.881921264348348 .471396736826011 0
  outer loop
    vertex -102.686497119364 68.6129237779209 230
    vertex -114.099122265144 47.2614038970886 47.6
    vertex -114.099122265144 47.2614038970886 230
  endloop
endfacet
facet normal -.881921264348348 .471396736826011 0
  outer loop
    vertex -102.686497119364 68.6129237779209 230
    vertex -102.686497119364 68.6129237779209 47.6
    vertex -114.099122265144 47.2614038970886 47.6
  endloop
endfacet
facet normal -.956940335732209 .29028467725446 0
  outer loop
    vertex -114.099122265144 47.2614038970886 230
    vertex -121.126982129799 24.0936547689918 24.81
    vertex -121.126982129799 24.0936547689918 230
  endloop
endfacet
facet normal -.956940335732209 .29028467725446 0
  outer loop
    vertex -114.099122265144 47.2614038970886 230
    vertex -114.099122265144 47.2614038970886 24.81
    vertex -121.126982129799 24.0936547689918 24.81
  endloop
endfacet
facet normal -.995184726672197 .098017140329559 0
  outer loop
    vertex -121.126982129799 24.0936547689918 230
    vertex -123.5 0 24.81
    vertex -123.5 0 230
  endloop
endfacet
facet normal -.995184726672197 .098017140329559 0
  outer loop
    vertex -121.126982129799 24.0936547689918 230
    vertex -121.126982129799 24.0936547689918 24.81
    vertex -123.5 0 24.81
  endloop
endfacet
facet normal 0 0 1
  outer loop
    vertex -47.2614038970886 -130 47.6
    vertex -47.2614038970886 -114.099122265144 47.6
    vertex -88.6307019485443 -130 47.6
  endloop
endfacet
facet normal 0 0 1
  outer loop
    vertex -88.6307019485443 -130 47.6
    vertex -47.2614038970886 -114.099122265144 47.6
    vertex -68.6129237779209 -102.686497119364 47.6
  endloop
endfacet
facet normal 0 0 1
  outer loop
    vertex -88.6307019485443 -130 47.6
    vertex -68.6129237779209 -102.686497119364 47.6
    vertex -87.3276874765386 -87.3276874765386 47.6
  endloop
endfacet
facet normal 0 0 1
  outer loop
    vertex -88.6307019485443 -130 47.6
    vertex -87.3276874765386 -87.3276874765386 47.6
    vertex -130 -88.6307019485443 47.6
  endloop
endfacet
facet normal 0 0 1
  outer loop
    vertex -130 -88.6307019485443 47.6
    vertex -87.3276874765386 -87.3276874765386 47.6
    vertex -102.686497119364 -68.6129237779209 47.6
  endloop
endfacet
facet normal 0 0 1
  outer loop
    vertex -130 -88.6307019485443 47.6
    vertex -102.686497119364 -68.6129237779209 47.6
    vertex -114.099122265144 -47.2614038970886 47.6
  endloop
endfacet
facet normal 0 0 1
  outer loop
    vertex -130 -88.6307019485443 47.6
    vertex -114.099122265144 -47.2614038970886 47.6
    vertex -130 -47.2614038970886 47.6
  endloop
endfacet
facet normal 0 0 1
  outer loop
    vertex -130 47.2614038970886 47.6
    vertex -114.099122265144 47.2614038970886 47.6
    vertex -130 88.6307019485443 47.6
  endloop
endfacet
facet normal 0 0 1
  outer loop
    vertex -130 88.6307019485443 47.6
    vertex -114.099122265144 47.2614038970886 47.6
    vertex -102.686497119364 68.6129237779209 47.6
  endloop
endfacet
facet normal 0 0 1
  outer loop
    vertex -130 88.6307019485443 47.6
    vertex -102.686497119364 68.6129237779209 47.6
    vertex -87.3276874765386 87.3276874765386 47.6
  endloop
endfacet
facet normal 0 0 1
  outer loop
    vertex -130 88.6307019485443 47.6
    vertex -87.3276874765386 87.3276874765386 47.6
    vertex -88.6307019485443 130 47.6
  endloop
endfacet
facet normal 0 0 1
  outer loop
    vertex -88.6307019485443 130 47.6
    vertex -87.3276874765386 87.3276874765386 47.6
    vertex -68.6129237779209 102.686497119364 47.6
  endloop
endfacet
facet normal 0 0 1
  outer loop
    vertex -88.6307019485443 130 47.6
    vertex -68.6129237779209 102.686497119364 47.6
    vertex -47.2614038970886 114.099122265144 47.6
  endloop
endfacet
facet normal 0 0 1
  outer loop
    vertex -88.6307019485443 130 47.6
    vertex -47.2614038970886 114.099122265144 47.6
    vertex -47.2614038970886 130 47.6
  endloop
endfacet
facet normal 0 0 1
  outer loop
    vertex 130 130 47.6
    vertex 47.2614038970886 130 47.6
    vertex 47.2614038970886 114.099122265144 47.6
  endloop
endfacet
facet normal 0 0 1
  outer loop
    vertex 130 130 47.6
    vertex 47.2614038970886 114.099122265144 47.6
    vertex 68.6129237779209 102.686497119364 47.6
  endloop
endfacet
facet normal 0 0 1
  outer loop
    vertex 130 130 47.6
    vertex 68.6129237779209 102.686497119364 47.6
    vertex 87.3276874765386 87.3276874765386 47.6
  endloop
endfacet
facet normal 0 0 1
  outer loop
    vertex 130 130 47.6
    vertex 87.3276874765386 87.3276874765386 47.6
    vertex 102.686497119364 68.6129237779209 47.6
  endloop
endfacet
facet normal 0 0 1
  outer loop
    vertex 130 130 47.6
    vertex 102.686497119364 68.6129237779209 47.6
    vertex 114.099122265144 47.2614038970886 47.6
  endloop
endfacet
facet normal 0 0 1
  outer loop
    vertex 130 130 47.6
    vertex 114.099122265144 47.2614038970886 47.6
    vertex 130 47.2614038970886 47.6
  endloop
endfacet
facet normal 0 0 1
  outer loop
    vertex 130 -130 47.6
    vertex 130 -47.2614038970886 47.6
    vertex 114.099122265144 -47.2614038970886 47.6
  endloop
endfacet
facet normal 0 0 1
  outer loop
    vertex 130 -130 47.6
    vertex 114.099122265144 -47.2614038970886 47.6
    vertex 102.686497119364 -68.6129237779209 47.6
  endloop
endfacet
facet normal 0 0 1
  outer loop
    vertex 130 -130 47.6
    vertex 102.686497119364 -68.6129237779209 47.6
    vertex 87.3276874765386 -87.3276874765386 47.6
  endloop
endfacet
facet normal 0 0 1
  outer loop
    vertex 130 -130 47.6
    vertex 87.3276874765386 -87.3276874765386 47.6
    vertex 68.6129237779209 -102.686497119364 47.6
  endloop
endfacet
facet normal 0 0 1
  outer loop
    vertex 130 -130 47.6
    vertex 68.6129237779209 -102.686497119364 47.6
    vertex 47.2614038970886 -114.099122265144 47.6
  endloop
endfacet
facet normal 0 0 1
  outer loop
    vertex 130 -130 47.6
    vertex 47.2614038970886 -114.099122265144 47.6
    vertex 47.2614038970886 -130 47.6
  endloop
endfacet
facet normal 0 0 -1
  outer loop
    vertex 130 130 2
    vertex -130 88.6307019485443 2
    vertex -88.6307019485443 130 2
  endloop
endfacet
facet normal 0 0 -1
  outer loop
    vertex 130 130 2
    vertex -130 -88.6307019485443 2
    vertex -130 88.6307019485443 2
  endloop
endfacet
facet normal 0 0 -1
  outer loop
    vertex 130 130 2
    vertex -88.6307019485443 -130 2
    vertex -130 -88.6307019485443 2
  endloop
endfacet
facet normal 0 0 -1
  outer loop
    vertex 130 130 2
    vertex 130 -130 2
    vertex -88.6307019485443 -130 2
  endloop
endfacet
facet normal -1 0 0
  outer loop
    vertex -130 88.6307019485443 47.6
    vertex -130 88.6307019485443 2
    vertex -130 47.2614038970886 47.6
  endloop
endfacet
facet normal -1 0 0
  outer loop
    vertex -130 47.2614038970886 47.6
    vertex -130 88.6307019485443 2
    vertex -130 47.2614038970886 24.8
  endloop
endfacet
facet normal -1 0 0
  outer loop
    vertex -130 88.6307019485443 2
    vertex -130 -47.2614038970886 24.8
    vertex -130 47.2614038970886 24.8
  endloop
endfacet
facet normal -1 0 0
  outer loop
    vertex -130 88.6307019485443 2
    vertex -130 -88.6307019485443 2
    vertex -130 -47.2614038970886 24.8
  endloop
endfacet
facet normal -1 0 0
  outer loop
    vertex -130 -88.6307019485443 2
    vertex -130 -88.6307019485443 47.6
    vertex -130 -47.2614038970886 24.8
  endloop
endfacet
facet normal -1 0 0
  outer loop
    vertex -130 -47.2614038970886 47.6
    vertex -130 -47.2614038970886 24.8
    vertex -130 -88.6307019485443 47.6
  endloop
endfacet
facet normal 0 1 0
  outer loop
    vertex 130 130 47.6
    vertex 130 130 2
    vertex 47.2614038970886 130 47.6
  endloop
endfacet
facet normal 0 1 0
  outer loop
    vertex 130 130 2
    vertex 47.2614038970886 130 24.8
    vertex 47.2614038970886 130 47.6
  endloop
endfacet
facet normal 0 1 0
  outer loop
    vertex 130 130 2
    vertex -47.2614038970886 130 24.8
    vertex 47.2614038970886 130 24.8
  endloop
endfacet
facet normal 0 1 0
  outer loop
    vertex 130 130 2
    vertex -88.6307019485443 130 2
    vertex -47.2614038970886 130 24.8
  endloop
endfacet
facet normal 0 1 0
  outer loop
    vertex -88.6307019485443 130 2
    vertex -88.6307019485443 130 47.6
    vertex -47.2614038970886 130 24.8
  endloop
endfacet
facet normal 0 1 0
  outer loop
    vertex -47.2614038970886 130 47.6
    vertex -47.2614038970886 130 24.8
    vertex -88.6307019485443 130 47.6
  endloop
endfacet
facet normal 1 0 0
  outer loop
    vertex 130 -130 47.6
    vertex 130 -130 2
    vertex 130 -47.2614038970886 47.6
  endloop
endfacet
facet normal 1 0 0
  outer loop
    vertex 130 -130 2
    vertex 130 -47.2614038970886 24.8
    vertex 130 -47.2614038970886 47.6
  endloop
endfacet
facet normal 1 0 0
  outer loop
    vertex 130 -130 2
    vertex 130 47.2614038970886 24.8
    vertex 130 -47.2614038970886 24.8
  endloop
endfacet
facet normal 1 0 0
  outer loop
    vertex 130 -130 2
    vertex 130 130 2
    vertex 130 47.2614038970886 24.8
  endloop
endfacet
facet normal 1 0 0
  outer loop
    vertex 130 130 2
    vertex 130 130 47.6
    vertex 130 47.2614038970886 24.8
  endloop
endfacet
facet normal 1 0 0
  outer loop
    vertex 130 47.2614038970886 47.6
    vertex 130 47.2614038970886 24.8
    vertex 130 130 47.6
  endloop
endfacet
facet normal 0 -1 0
  outer loop
    vertex -88.6307019485443 -130 47.6
    vertex -88.6307019485443 -130 2
    vertex -47.2614038970886 -130 47.6
  endloop
endfacet
facet normal 0 -1 0
  outer loop
    vertex -88.6307019485443 -130 2
    vertex -47.2614038970886 -130 24.8
    vertex -47.2614038970886 -130 47.6
  endloop
endfacet
facet normal 0 -1 0
  outer loop
    vertex -88.6307019485443 -130 2
    vertex 47.2614038970886 -130 24.8
    vertex -47.2614038970886 -130 24.8
  endloop
endfacet
facet normal 0 -1 0
  outer loop
    vertex -88.6307019485443 -130 2
    vertex 130 -130 2
    vertex 47.2614038970886 -130 24.8
  endloop
endfacet
facet normal 0 -1 0
  outer loop
    vertex 130 -130 2
    vertex 130 -130 47.6
    vertex 47.2614038970886 -130 24.8
  endloop
endfacet
facet normal 0 -1 0
  outer loop
    vertex 47.2614038970886 -130 47.6
    vertex 47.2614038970886 -130 24.8
    vertex 130 -130 47.6
  endloop
endfacet
facet normal -.707106781186548 -.707106781186548 0
  outer loop
    vertex -130 -88.6307019485443 47.6
    vertex -88.6307019485443 -130 2
    vertex -88.6307019485443 -130 47.6
  endloop
endfacet
facet normal -.707106781186548 -.707106781186548 0
  outer loop
    vertex -130 -88.6307019485443 47.6
    vertex -130 -88.6307019485443 2
    vertex -88.6307019485443 -130 2
  endloop
endfacet
facet normal -.707106781186548 .707106781186548 0
  outer loop
    vertex -88.6307019485443 130 47.6
    vertex -130 88.6307019485443 2
    vertex -130 88.6307019485443 47.6
  endloop
endfacet
facet normal -.707106781186548 .707106781186548 0
  outer loop
    vertex -88.6307019485443 130 47.6
    vertex -88.6307019485443 130 2
    vertex -130 88.6307019485443 2
  endloop
endfacet
facet normal 0 1 0
  outer loop
    vertex -114.099122265144 -47.2614038970886 47.6
    vertex -114.099122265144 -47.2614038970886 24.81
    vertex -130 -47.2614038970886 47.6
  endloop
endfacet
facet normal 0 1 0
  outer loop
    vertex -114.099122265144 -47.2614038970886 24.81
    vertex -130 -47.2614038970886 24.8
    vertex -130 -47.2614038970886 47.6
  endloop
endfacet
facet normal 0 -1 0
  outer loop
    vertex -130 47.2614038970886 47.6
    vertex -114.099122265144 47.2614038970886 24.81
    vertex -114.099122265144 47.2614038970886 47.6
  endloop
endfacet
facet normal 0 -1 0
  outer loop
    vertex -114.099122265144 47.2614038970886 24.81
    vertex -130 47.2614038970886 47.6
    vertex -130 47.2614038970886 24.8
  endloop
endfacet
facet normal 1 0 0
  outer loop
    vertex -47.2614038970886 114.099122265144 47.6
    vertex -47.2614038970886 114.099122265144 24.81
    vertex -47.2614038970886 130 47.6
  endloop
endfacet
facet normal 1 0 0
  outer loop
    vertex -47.2614038970886 114.099122265144 24.81
    vertex -47.2614038970886 130 24.8
    vertex -47.2614038970886 130 47.6
  endloop
endfacet
facet normal -1 0 0
  outer loop
    vertex 47.2614038970886 130 47.6
    vertex 47.2614038970886 114.099122265144 24.81
    vertex 47.2614038970886 114.099122265144 47.6
  endloop
endfacet
facet normal -1 0 0
  outer loop
    vertex 47.2614038970886 114.099122265144 24.81
    vertex 47.2614038970886 130 47.6
    vertex 47.2614038970886 130 24.8
  endloop
endfacet
facet normal 0 -1 0
  outer loop
    vertex 114.099122265144 47.2614038970886 47.6
    vertex 114.099122265144 47.2614038970886 24.81
    vertex 130 47.2614038970886 47.6
  endloop
endfacet
facet normal 0 -1 0
  outer loop
    vertex 114.099122265144 47.2614038970886 24.81
    vertex 130 47.2614038970886 24.8
    vertex 130 47.2614038970886 47.6
  endloop
endfacet
facet normal 0 1 0
  outer loop
    vertex 130 -47.2614038970886 47.6
    vertex 114.099122265144 -47.2614038970886 24.81
    vertex 114.099122265144 -47.2614038970886 47.6
  endloop
endfacet
facet normal 0 1 0
  outer loop
    vertex 114.099122265144 -47.2614038970886 24.81
    vertex 130 -47.2614038970886 47.6
    vertex 130 -47.2614038970886 24.8
  endloop
endfacet
facet normal -1 0 0
  outer loop
    vertex 47.2614038970886 -114.099122265144 47.6
    vertex 47.2614038970886 -114.099122265144 24.81
    vertex 47.2614038970886 -130 47.6
  endloop
endfacet
facet normal -1 0 0
  outer loop
    vertex 47.2614038970886 -114.099122265144 24.81
    vertex 47.2614038970886 -130 24.8
    vertex 47.2614038970886 -130 47.6
  endloop
endfacet
facet normal 1 0 0
  outer loop
    vertex -47.2614038970886 -130 47.6
    vertex -47.2614038970886 -114.099122265144 24.81
    vertex -47.2614038970886 -114.099122265144 47.6
  endloop
endfacet
facet normal 1 0 0
  outer loop
    vertex -47.2614038970886 -114.099122265144 24.81
    vertex -47.2614038970886 -130 47.6
    vertex -47.2614038970886 -130 24.8
  endloop
endfacet
facet normal 1.9077350518449E-04 6.28895964563872E-04 .999999784047644
  outer loop
    vertex 47.2614038970886 130 24.8
    vertex 24.0936547689919 121.126982129799 24.81
    vertex 47.2614038970886 114.099122265144 24.81
  endloop
endfacet
facet normal 8.82947185135789E-05 8.96471321394347E-04 .999999594271524
  outer loop
    vertex 47.2614038970886 130 24.8
    vertex 7.56219398473491E-15 123.5 24.81
    vertex 24.0936547689919 121.126982129799 24.81
  endloop
endfacet
facet normal -8.82947185135788E-05 8.96471321394347E-04 .999999594271524
  outer loop
    vertex -47.2614038970886 130 24.8
    vertex -24.0936547689919 121.126982129799 24.81
    vertex 7.56219398473491E-15 123.5 24.81
  endloop
endfacet
facet normal -1.9077350518449E-04 6.28895964563872E-04 .999999784047644
  outer loop
    vertex -47.2614038970886 130 24.8
    vertex -47.2614038970886 114.099122265144 24.81
    vertex -24.0936547689919 121.126982129799 24.81
  endloop
endfacet
facet normal 0 1.53845971779992E-03 .999998816570148
  outer loop
    vertex 47.2614038970886 130 24.8
    vertex -47.2614038970886 130 24.8
    vertex 7.56219398473491E-15 123.5 24.81
  endloop
endfacet
facet normal -6.28895964563872E-04 1.9077350518449E-04 .999999784047644
  outer loop
    vertex -130 47.2614038970886 24.8
    vertex -121.126982129799 24.0936547689918 24.81
    vertex -114.099122265144 47.2614038970886 24.81
  endloop
endfacet
facet normal -8.96471321394346E-04 8.82947185135791E-05 .999999594271524
  outer loop
    vertex -130 47.2614038970886 24.8
    vertex -123.5 0 24.81
    vertex -121.126982129799 24.0936547689918 24.81
  endloop
endfacet
facet normal -8.96471321394346E-04 -8.82947185135791E-05 .999999594271524
  outer loop
    vertex -130 -47.2614038970886 24.8
    vertex -121.126982129799 -24.0936547689918 24.81
    vertex -123.5 0 24.81
  endloop
endfacet
facet normal -6.28895964563872E-04 -1.9077350518449E-04 .999999784047644
  outer loop
    vertex -130 -47.2614038970886 24.8
    vertex -114.099122265144 -47.2614038970886 24.81
    vertex -121.126982129799 -24.0936547689918 24.81
  endloop
endfacet
facet normal -1.53845971779992E-03 0 .999998816570148
  outer loop
    vertex -130 47.2614038970886 24.8
    vertex -130 -47.2614038970886 24.8
    vertex -123.5 0 24.81
  endloop
endfacet
facet normal -1.9077350518449E-04 -6.28895964563872E-04 .999999784047644
  outer loop
    vertex -47.2614038970886 -130 24.8
    vertex -24.0936547689919 -121.126982129799 24.81
    vertex -47.2614038970886 -114.099122265144 24.81
  endloop
endfacet
facet normal -8.82947185135789E-05 -8.96471321394347E-04 .999999594271524
  outer loop
    vertex -47.2614038970886 -130 24.8
    vertex -7.56219398473491E-15 -123.5 24.81
    vertex -24.0936547689919 -121.126982129799 24.81
  endloop
endfacet
facet normal 8.82947185135788E-05 -8.96471321394347E-04 .999999594271524
  outer loop
    vertex 47.2614038970886 -130 24.8
    vertex 24.0936547689919 -121.126982129799 24.81
    vertex -7.56219398473491E-15 -123.5 24.81
  endloop
endfacet
facet normal 1.9077350518449E-04 -6.28895964563872E-04 .999999784047644
  outer loop
    vertex 47.2614038970886 -130 24.8
    vertex 47.2614038970886 -114.099122265144 24.81
    vertex 24.0936547689919 -121.126982129799 24.81
  endloop
endfacet
facet normal 0 -1.53845971779992E-03 .999998816570148
  outer loop
    vertex -47.2614038970886 -130 24.8
    vertex 47.2614038970886 -130 24.8
    vertex -7.56219398473491E-15 -123.5 24.81
  endloop
endfacet
facet normal 6.28895964563872E-04 -1.9077350518449E-04 .999999784047644
  outer loop
    vertex 130 -47.2614038970886 24.8
    vertex 121.126982129799 -24.0936547689918 24.81
    vertex 114.099122265144 -47.2614038970886 24.81
  endloop
endfacet
facet normal 8.96471321394346E-04 -8.82947185135791E-05 .999999594271524
  outer loop
    vertex 130 -47.2614038970886 24.8
    vertex 123.5 0 24.81
    vertex 121.126982129799 -24.0936547689918 24.81
  endloop
endfacet
facet normal 8.96471321394346E-04 8.82947185135791E-05 .999999594271524
  outer loop
    vertex 130 47.2614038970886 24.8
    vertex 121.126982129799 24.0936547689918 24.81
    vertex 123.5 0 24.81
  endloop
endfacet
facet normal 6.28895964563872E-04 1.9077350518449E-04 .999999784047644
  outer loop
    vertex 130 47.2614038970886 24.8
    vertex 114.099122265144 47.2614038970886 24.81
    vertex 121.126982129799 24.0936547689918 24.81
  endloop
endfacet
facet normal 1.53845971779992E-03 0 .999998816570148
  outer loop
    vertex 130 -47.2614038970886 24.8
    vertex 130 47.2614038970886 24.8
    vertex 123.5 0 24.81
  endloop
endfacet
facet normal 1 0 0
  outer loop
    vertex 138 -16 0
    vertex 138 16 10
    vertex 138 -16 10
  endloop
endfacet
facet normal 1 0 0
  outer loop
    vertex 138 -16 0
    vertex 138 16 0
    vertex 138 16 10
  endloop
endfacet
facet normal 0 1 0
  outer loop
    vertex 138 16 10
    vertex 138 16 0
    vertex 130 16 10
  endloop
endfacet
facet normal 0 1 0
  outer loop
    vertex 130 16 10
    vertex 138 16 0
    vertex 130 16 2
  endloop
endfacet
facet normal 0 1 0
  outer loop
    vertex 130 16 2
    vertex 138 16 0
    vertex 51 16 2
  endloop
endfacet
facet normal 0 1 0
  outer loop
    vertex 51 16 0
    vertex 51 16 2
    vertex 138 16 0
  endloop
endfacet
facet normal -1 0 0
  outer loop
    vertex 51 16 0
    vertex 51 -16 2
    vertex 51 16 2
  endloop
endfacet
facet normal -1 0 0
  outer loop
    vertex 51 16 0
    vertex 51 -16 0
    vertex 51 -16 2
  endloop
endfacet
facet normal 0 -1 0
  outer loop
    vertex 130 -16 2
    vertex 51 -16 2
    vertex 51 -16 0
  endloop
endfacet
facet normal 0 -1 0
  outer loop
    vertex 130 -16 2
    vertex 51 -16 0
    vertex 138 -16 0
  endloop
endfacet
facet normal 0 -1 0
  outer loop
    vertex 130 -16 2
    vertex 138 -16 10
    vertex 130 -16 10
  endloop
endfacet
facet normal 0 -1 0
  outer loop
    vertex 130 -16 2
    vertex 138 -16 0
    vertex 138 -16 10
  endloop
endfacet
facet normal -1 0 0
  outer loop
    vertex 130 16 10
    vertex 130 -16 2
    vertex 130 -16 10
  endloop
endfacet
facet normal -1 0 0
  outer loop
    vertex 130 16 10
    vertex 130 16 2
    vertex 130 -16 2
  endloop
endfacet
facet normal 0 0 1
  outer loop
    vertex 138 -16 10
    vertex 138 16 10
    vertex 130 -16 10
  endloop
endfacet
facet normal 0 0 1
  outer loop
    vertex 130 -16 10
    vertex 138 16 10
    vertex 130 16 10
  endloop
endfacet
facet normal 0 0 1
  outer loop
    vertex 130 -16 2
    vertex 130 16 2
    vertex 51 -16 2
  endloop
endfacet
facet normal 0 0 1
  outer loop
    vertex 130 16 2
    vertex 51 16 2
    vertex 51 -16 2
  endloop
endfacet
facet normal 0 0 -1
  outer loop
    vertex 138 -16 0
    vertex 51 -16 0
    vertex 138 16 0
  endloop
endfacet
facet normal 0 0 -1
  outer loop
    vertex 138 16 0
    vertex 51 -16 0
    vertex 51 16 0
  endloop
endfacet
facet normal -1 0 0
  outer loop
    vertex -138 16 0
    vertex -138 -16 10
    vertex -138 16 10
  endloop
endfacet
facet normal -1 0 0
  outer loop
    vertex -138 16 0
    vertex -138 -16 0
    vertex -138 -16 10
  endloop
endfacet
facet normal 0 -1 0
  outer loop
    vertex -138 -16 10
    vertex -138 -16 0
    vertex -130 -16 10
  endloop
endfacet
facet normal 0 -1 0
  outer loop
    vertex -130 -16 10
    vertex -138 -16 0
    vertex -130 -16 2
  endloop
endfacet
facet normal 0 -1 0
  outer loop
    vertex -130 -16 2
    vertex -138 -16 0
    vertex -51 -16 2
  endloop
endfacet
facet normal 0 -1 0
  outer loop
    vertex -51 -16 0
    vertex -51 -16 2
    vertex -138 -16 0
  endloop
endfacet
facet normal 1 0 0
  outer loop
    vertex -51 -16 0
    vertex -51 16 2
    vertex -51 -16 2
  endloop
endfacet
facet normal 1 0 0
  outer loop
    vertex -51 -16 0
    vertex -51 16 0
    vertex -51 16 2
  endloop
endfacet
facet normal 0 1 0
  outer loop
    vertex -130 16 2
    vertex -51 16 2
    vertex -51 16 0
  endloop
endfacet
facet normal 0 1 0
  outer loop
    vertex -130 16 2
    vertex -51 16 0
    vertex -138 16 0
  endloop
endfacet
facet normal 0 1 0
  outer loop
    vertex -130 16 2
    vertex -138 16 10
    vertex -130 16 10
  endloop
endfacet
facet normal 0 1 0
  outer loop
    vertex -130 16 2
    vertex -138 16 0
    vertex -138 16 10
  endloop
endfacet
facet normal 1 0 0
  outer loop
    vertex -130 -16 10
    vertex -130 16 2
    vertex -130 16 10
  endloop
endfacet
facet normal 1 0 0
  outer loop
    vertex -130 -16 10
    vertex -130 -16 2
    vertex -130 16 2
  endloop
endfacet
facet normal 0 0 1
  outer loop
    vertex -138 16 10
    vertex -138 -16 10
    vertex -130 16 10
  endloop
endfacet
facet normal 0 0 1
  outer loop
    vertex -130 16 10
    vertex -138 -16 10
    vertex -130 -16 10
  endloop
endfacet
facet normal 0 0 1
  outer loop
    vertex -130 16 2
    vertex -130 -16 2
    vertex -51 16 2
  endloop
endfacet
facet normal 0 0 1
  outer loop
    vertex -130 -16 2
    vertex -51 -16 2
    vertex -51 16 2
  endloop
endfacet
facet normal 0 0 -1
  outer loop
    vertex -138 16 0
    vertex -51 16 0
    vertex -138 -16 0
  endloop
endfacet
facet normal 0 0 -1
  outer loop
    vertex -138 -16 0
    vertex -51 16 0
    vertex -51 -16 0
  endloop
endfacet
endsolid U2-I-M
