G04*
G04 #@! TF.GenerationSoftware,Altium Limited,Altium Designer,19.0.10 (269)*
G04*
G04 Layer_Color=32896*
%FSLAX25Y25*%
%MOIN*%
G70*
G01*
G75*
%ADD58C,0.00197*%
D58*
X285378Y329470D02*
X332819D01*
Y283407D02*
Y329470D01*
X285378Y283407D02*
X332819D01*
X285378D02*
Y329470D01*
X379354Y271360D02*
X395771D01*
Y262777D02*
Y271360D01*
X379354Y262777D02*
X395771D01*
X379354D02*
Y271360D01*
X246068Y299942D02*
Y319234D01*
X256501D01*
Y299942D02*
Y319234D01*
X246068Y299942D02*
X256501D01*
X287937Y288525D02*
X305850D01*
X287937D02*
Y297580D01*
X305850D01*
Y288525D02*
Y297580D01*
X292545Y274942D02*
X321775Y304173D01*
X351006Y274942D01*
X321775Y245711D02*
X351006Y274942D01*
X292545D02*
X321775Y245711D01*
X285870Y295513D02*
Y329175D01*
X257523Y295513D02*
X285870D01*
X257523D02*
Y329175D01*
X285870D01*
X376027Y290100D02*
Y327108D01*
X332720Y290100D02*
X376027D01*
X332720D02*
Y327108D01*
X376027D01*
X310082Y297678D02*
Y327009D01*
X288429Y297678D02*
X310082D01*
X288429D02*
Y327009D01*
X310082D01*
X248194Y259549D02*
X264611D01*
Y250966D02*
Y259549D01*
X248194Y250966D02*
X264611D01*
X248194D02*
Y259549D01*
X378980Y261163D02*
Y271596D01*
X359689D02*
X378980D01*
X359689Y261163D02*
Y271596D01*
Y261163D02*
X378980D01*
X278291Y269726D02*
X288724D01*
Y289017D01*
X278291D02*
X288724D01*
X278291Y269726D02*
Y289017D01*
X380425Y273660D02*
X403850D01*
X380425D02*
Y289133D01*
X403850D01*
Y273660D02*
Y289133D01*
X342602Y272245D02*
X351185D01*
X342602D02*
Y288663D01*
X351185D01*
Y272245D02*
Y288663D01*
X313921Y319627D02*
Y328682D01*
Y319627D02*
X331834D01*
Y328682D01*
X313921D02*
X331834D01*
X335023Y298187D02*
Y306770D01*
X318606D02*
X335023D01*
X318606Y298187D02*
Y306770D01*
Y298187D02*
X335023D01*
X378291Y261852D02*
Y270907D01*
X360378Y261852D02*
X378291D01*
X360378D02*
Y270907D01*
X378291D01*
X381529Y253249D02*
Y261831D01*
Y253249D02*
X397946D01*
Y261831D01*
X381529D02*
X397946D01*
X279659Y270316D02*
X288714D01*
X279659D02*
Y288230D01*
X288714D01*
Y270316D02*
Y288230D01*
X247740Y319864D02*
Y328446D01*
X264157D01*
Y319864D02*
Y328446D01*
X247740Y319864D02*
X264157D01*
X365496Y275139D02*
Y294430D01*
X355063D02*
X365496D01*
X355063Y275139D02*
Y294430D01*
Y275139D02*
X365496D01*
X377307D02*
Y294430D01*
X366874D02*
X377307D01*
X366874Y275139D02*
Y294430D01*
Y275139D02*
X377307D01*
X267553Y269627D02*
Y288919D01*
X277986D01*
Y269627D02*
Y288919D01*
X267553Y269627D02*
X277986D01*
X355653Y296005D02*
X373567D01*
Y305060D01*
X355653D02*
X373567D01*
X355653Y296005D02*
Y305060D01*
Y305848D02*
X373567D01*
Y314903D01*
X355653D02*
X373567D01*
X355653Y305848D02*
Y314903D01*
X293744Y251123D02*
X311657D01*
Y260178D01*
X293744D02*
X311657D01*
X293744Y251123D02*
Y260178D01*
X268636Y270120D02*
Y288033D01*
Y270120D02*
X277691D01*
Y288033D01*
X268636D02*
X277691D01*
X246757Y300533D02*
Y318446D01*
Y300533D02*
X255812D01*
Y318446D01*
X246757D02*
X255812D01*
X324157Y265395D02*
X342071D01*
Y274450D01*
X324157D02*
X342071D01*
X324157Y265395D02*
Y274450D01*
X323665Y274549D02*
X341578D01*
Y283604D01*
X323665D02*
X341578D01*
X323665Y274549D02*
Y283604D01*
X268645Y269627D02*
X286559Y269627D01*
X268645Y260572D02*
Y269627D01*
Y260572D02*
X286559D01*
Y269627D01*
X342602Y298230D02*
Y314647D01*
Y298230D02*
X351185D01*
Y314647D01*
X342602D02*
X351185D01*
X349315Y321045D02*
X365732D01*
Y329627D01*
X349315D02*
X365732D01*
X349315Y321045D02*
Y329627D01*
X378645Y271360D02*
X395063D01*
X378645Y262777D02*
Y271360D01*
Y262777D02*
X395063D01*
Y271360D01*
X277956Y288387D02*
Y304804D01*
X269374D02*
X277956D01*
X269374Y288387D02*
Y304804D01*
Y288387D02*
X277956D01*
X297641Y264765D02*
Y281183D01*
X289059D02*
X297641D01*
X289059Y264765D02*
Y281183D01*
Y264765D02*
X297641Y264765D01*
X299098Y262600D02*
Y279017D01*
Y262600D02*
X307681D01*
Y279017D01*
X299098D02*
X307681D01*
M02*
