G04*
G04 #@! TF.GenerationSoftware,Altium Limited,Altium Designer,19.0.10 (269)*
G04*
G04 Layer_Color=8388736*
%FSLAX25Y25*%
%MOIN*%
G70*
G01*
G75*
%ADD17R,0.04134X0.07087*%
%ADD18R,0.07362X0.04055*%
%ADD19R,0.07087X0.04134*%
%ADD20R,0.04055X0.07362*%
%ADD21R,0.06890X0.06693*%
%ADD22R,0.07480X0.08268*%
%ADD23R,0.07480X0.05906*%
%ADD24R,0.05315X0.01575*%
G04:AMPARAMS|DCode=25|XSize=59.06mil|YSize=19.68mil|CornerRadius=0mil|HoleSize=0mil|Usage=FLASHONLY|Rotation=45.000|XOffset=0mil|YOffset=0mil|HoleType=Round|Shape=Rectangle|*
%AMROTATEDRECTD25*
4,1,4,-0.01392,-0.02784,-0.02784,-0.01392,0.01392,0.02784,0.02784,0.01392,-0.01392,-0.02784,0.0*
%
%ADD25ROTATEDRECTD25*%

G04:AMPARAMS|DCode=26|XSize=59.06mil|YSize=19.68mil|CornerRadius=0mil|HoleSize=0mil|Usage=FLASHONLY|Rotation=135.000|XOffset=0mil|YOffset=0mil|HoleType=Round|Shape=Rectangle|*
%AMROTATEDRECTD26*
4,1,4,0.02784,-0.01392,0.01392,-0.02784,-0.02784,0.01392,-0.01392,0.02784,0.02784,-0.01392,0.0*
%
%ADD26ROTATEDRECTD26*%

%ADD27R,0.03740X0.06890*%
%ADD28R,0.12598X0.06890*%
%ADD29R,0.01575X0.07087*%
%ADD30R,0.02559X0.06004*%
%ADD31R,0.01575X0.07874*%
%ADD32R,0.06693X0.06890*%
%ADD33R,0.03347X0.13504*%
%ADD34C,0.06000*%
%ADD35C,0.08000*%
%ADD36R,0.08000X0.08000*%
%ADD37R,0.06000X0.08000*%
%ADD38O,0.06000X0.08000*%
%ADD39C,0.05709*%
%ADD40C,0.07087*%
G04:AMPARAMS|DCode=41|XSize=70.87mil|YSize=70.87mil|CornerRadius=8.86mil|HoleSize=0mil|Usage=FLASHONLY|Rotation=270.000|XOffset=0mil|YOffset=0mil|HoleType=Round|Shape=RoundedRectangle|*
%AMROUNDEDRECTD41*
21,1,0.07087,0.05315,0,0,270.0*
21,1,0.05315,0.07087,0,0,270.0*
1,1,0.01772,-0.02657,-0.02657*
1,1,0.01772,-0.02657,0.02657*
1,1,0.01772,0.02657,0.02657*
1,1,0.01772,0.02657,-0.02657*
%
%ADD41ROUNDEDRECTD41*%
%ADD42C,0.06984*%
D17*
X351969Y231496D02*
D03*
X363779D02*
D03*
X342043Y231540D02*
D03*
X330232D02*
D03*
X302799Y293053D02*
D03*
X290988D02*
D03*
X328783Y324155D02*
D03*
X316972D02*
D03*
D18*
X214137Y340131D02*
D03*
Y328949D02*
D03*
X226137Y340081D02*
D03*
Y328900D02*
D03*
D19*
X237137Y328540D02*
D03*
Y340351D02*
D03*
D20*
X381972Y267069D02*
D03*
X393153D02*
D03*
X250812Y255257D02*
D03*
X261993D02*
D03*
X321224Y302479D02*
D03*
X332405D02*
D03*
X395328Y257540D02*
D03*
X384147D02*
D03*
D21*
X251284Y305060D02*
D03*
Y314116D02*
D03*
X283507Y283899D02*
D03*
Y274844D02*
D03*
X272769Y274745D02*
D03*
Y283801D02*
D03*
D22*
X398437Y294288D02*
D03*
Y320666D02*
D03*
D23*
Y303540D02*
D03*
Y311414D02*
D03*
D24*
X387808Y307477D02*
D03*
Y310036D02*
D03*
Y304918D02*
D03*
Y312595D02*
D03*
Y302359D02*
D03*
D25*
X302149Y270906D02*
D03*
X304376Y268679D02*
D03*
X306603Y266452D02*
D03*
X308830Y264224D02*
D03*
X311057Y261997D02*
D03*
X313284Y259770D02*
D03*
X315511Y257543D02*
D03*
X317739Y255316D02*
D03*
X341402Y278979D02*
D03*
X339175Y281206D02*
D03*
X336947Y283433D02*
D03*
X334720Y285660D02*
D03*
X332493Y287887D02*
D03*
X330266Y290114D02*
D03*
X328039Y292342D02*
D03*
X325812Y294569D02*
D03*
D26*
Y255316D02*
D03*
X328039Y257543D02*
D03*
X330266Y259770D02*
D03*
X332493Y261997D02*
D03*
X334720Y264224D02*
D03*
X336947Y266452D02*
D03*
X339175Y268679D02*
D03*
X341402Y270906D02*
D03*
X317739Y294569D02*
D03*
X315511Y292342D02*
D03*
X313284Y290114D02*
D03*
X311057Y287887D02*
D03*
X308830Y285660D02*
D03*
X306603Y283433D02*
D03*
X304376Y281206D02*
D03*
X302149Y278979D02*
D03*
D27*
X280752Y324745D02*
D03*
X271696D02*
D03*
X262641D02*
D03*
D28*
X271696Y299942D02*
D03*
D29*
X371007Y322580D02*
D03*
X368448D02*
D03*
X365889D02*
D03*
X363330D02*
D03*
X360771D02*
D03*
X358212D02*
D03*
X355653D02*
D03*
X353094D02*
D03*
X350535D02*
D03*
X347976D02*
D03*
X345417D02*
D03*
X342858D02*
D03*
X340299D02*
D03*
X337740D02*
D03*
Y294627D02*
D03*
X340299D02*
D03*
X342858D02*
D03*
X345417D02*
D03*
X347976D02*
D03*
X350535D02*
D03*
X353094D02*
D03*
X355653D02*
D03*
X358212D02*
D03*
X360771D02*
D03*
X363330D02*
D03*
X365889D02*
D03*
X368448D02*
D03*
X371007D02*
D03*
D30*
X306756Y323021D02*
D03*
X301756D02*
D03*
X296756D02*
D03*
X291756D02*
D03*
Y301667D02*
D03*
X296756D02*
D03*
X301756D02*
D03*
X306756D02*
D03*
D31*
X324452Y315887D02*
D03*
X319728D02*
D03*
X315004D02*
D03*
D32*
X364807Y266379D02*
D03*
X373862D02*
D03*
D33*
X401193Y281397D02*
D03*
X383082D02*
D03*
D34*
X187008Y171260D02*
D03*
X391732D02*
D03*
Y340551D02*
D03*
X187008D02*
D03*
D35*
X258049Y193161D02*
D03*
X281648Y208661D02*
D03*
X293448D02*
D03*
X305248D02*
D03*
X317049D02*
D03*
X328849D02*
D03*
X340649D02*
D03*
X352449D02*
D03*
X269848Y196861D02*
D03*
X281648D02*
D03*
X293448D02*
D03*
X305248D02*
D03*
X317049D02*
D03*
X328849D02*
D03*
X340649D02*
D03*
X352449D02*
D03*
X364248D02*
D03*
X376048Y208661D02*
D03*
X364248D02*
D03*
X376048Y196861D02*
D03*
X387749Y193161D02*
D03*
X194510D02*
D03*
X218110Y208661D02*
D03*
X206310Y196861D02*
D03*
X218110D02*
D03*
X229910Y193161D02*
D03*
D36*
X269848Y208661D02*
D03*
X206310D02*
D03*
D37*
X234337Y319739D02*
D03*
D38*
X227537D02*
D03*
X220737D02*
D03*
X213937D02*
D03*
X207137D02*
D03*
D39*
X387808Y317320D02*
D03*
Y297635D02*
D03*
D40*
X398437Y293698D02*
D03*
Y321257D02*
D03*
X261695Y286911D02*
D03*
X251695Y276911D02*
D03*
Y266911D02*
D03*
X261695D02*
D03*
Y276911D02*
D03*
D41*
X251695Y286911D02*
D03*
D42*
X352011Y240493D02*
D03*
X252011D02*
D03*
X261930D02*
D03*
X282011D02*
D03*
X272093D02*
D03*
X312092Y240481D02*
D03*
X322010D02*
D03*
X301929D02*
D03*
X292011D02*
D03*
X371929D02*
D03*
X381848D02*
D03*
X392010D02*
D03*
X361929Y240493D02*
D03*
X341848D02*
D03*
X331930D02*
D03*
Y338919D02*
D03*
X341848D02*
D03*
X361929D02*
D03*
X352011D02*
D03*
X292011Y338906D02*
D03*
X301929D02*
D03*
X322010D02*
D03*
X312092D02*
D03*
X272093Y338919D02*
D03*
X282011D02*
D03*
X261930D02*
D03*
X252011D02*
D03*
M02*
