G04*
G04 #@! TF.GenerationSoftware,Altium Limited,Altium Designer,19.0.10 (269)*
G04*
G04 Layer_Color=128*
%FSLAX25Y25*%
%MOIN*%
G70*
G01*
G75*
%ADD17R,0.04134X0.07087*%
%ADD18R,0.07362X0.04055*%
%ADD19R,0.07087X0.04134*%
%ADD20R,0.04055X0.07362*%
%ADD21R,0.06890X0.06693*%
%ADD49R,0.09449X0.06102*%
%ADD50R,0.02362X0.03937*%
%ADD51R,0.03937X0.02362*%
%ADD52R,0.10512X0.10000*%
%ADD53R,0.03000X0.05000*%
%ADD54R,0.02559X0.07284*%
G04:AMPARAMS|DCode=55|XSize=78.74mil|YSize=15.75mil|CornerRadius=0mil|HoleSize=0mil|Usage=FLASHONLY|Rotation=45.000|XOffset=0mil|YOffset=0mil|HoleType=Round|Shape=Rectangle|*
%AMROTATEDRECTD55*
4,1,4,-0.02227,-0.03341,-0.03341,-0.02227,0.02227,0.03341,0.03341,0.02227,-0.02227,-0.03341,0.0*
%
%ADD55ROTATEDRECTD55*%

D17*
X207858Y231630D02*
D03*
X219669D02*
D03*
X197102Y255731D02*
D03*
X185291D02*
D03*
X363429Y266379D02*
D03*
X375240D02*
D03*
X358704Y300533D02*
D03*
X370515D02*
D03*
X358704Y310375D02*
D03*
X370515D02*
D03*
X296795Y255651D02*
D03*
X308606D02*
D03*
X327208Y269923D02*
D03*
X339019D02*
D03*
X326716Y279076D02*
D03*
X338527D02*
D03*
X283507Y265100D02*
D03*
X271696Y265100D02*
D03*
D18*
X346893Y286045D02*
D03*
Y274864D02*
D03*
Y312029D02*
D03*
Y300848D02*
D03*
X273665Y291005D02*
D03*
Y302186D02*
D03*
X293350Y267383D02*
D03*
Y278564D02*
D03*
X303389Y276399D02*
D03*
Y265218D02*
D03*
D19*
X211992Y280139D02*
D03*
Y291950D02*
D03*
X202346Y301419D02*
D03*
Y289608D02*
D03*
X227928Y271933D02*
D03*
Y260122D02*
D03*
X237128Y306849D02*
D03*
Y295038D02*
D03*
X237028Y289549D02*
D03*
Y277738D02*
D03*
Y271949D02*
D03*
Y260138D02*
D03*
X236928Y254349D02*
D03*
Y242538D02*
D03*
X228137Y306949D02*
D03*
Y295138D02*
D03*
X228028Y289649D02*
D03*
Y277838D02*
D03*
X227828Y254349D02*
D03*
Y242538D02*
D03*
X284187Y285178D02*
D03*
Y273368D02*
D03*
X273163Y284982D02*
D03*
Y273171D02*
D03*
X251284Y315395D02*
D03*
Y303584D02*
D03*
D20*
X196787Y246282D02*
D03*
X185606D02*
D03*
X261539Y324155D02*
D03*
X250358D02*
D03*
X351933Y325336D02*
D03*
X363114D02*
D03*
X392444Y267068D02*
D03*
X381263D02*
D03*
D21*
X202346Y281206D02*
D03*
Y272151D02*
D03*
X360279Y280257D02*
D03*
Y289312D02*
D03*
X372090Y280257D02*
D03*
Y289312D02*
D03*
D49*
X187161Y231630D02*
D03*
X199169D02*
D03*
D50*
X210023Y251688D02*
D03*
X213763Y241452D02*
D03*
X206283D02*
D03*
D51*
X204174Y260940D02*
D03*
X214411Y264681D02*
D03*
Y257200D02*
D03*
D52*
X391132Y281206D02*
D03*
D53*
X400388D02*
D03*
D54*
X289098Y288033D02*
D03*
X294098D02*
D03*
X299098D02*
D03*
X304098D02*
D03*
X309098D02*
D03*
X314098D02*
D03*
X319098D02*
D03*
X324098D02*
D03*
X329098D02*
D03*
Y324844D02*
D03*
X324098D02*
D03*
X319098D02*
D03*
X314098D02*
D03*
X309098D02*
D03*
X304098D02*
D03*
X299098D02*
D03*
X294098D02*
D03*
X289098D02*
D03*
D55*
X315409Y268632D02*
D03*
X318749Y265291D02*
D03*
X322090Y261950D02*
D03*
M02*
