solid G-033-M
facet normal 1 0 0
  outer loop
    vertex 4 -5 1
    vertex 4 5 12
    vertex 4 -5 12
  endloop
endfacet
facet normal 1 0 0
  outer loop
    vertex 4 -5 1
    vertex 4 5 1
    vertex 4 5 12
  endloop
endfacet
facet normal -1 0 0
  outer loop
    vertex -4 5 1
    vertex -4 -5 12
    vertex -4 5 12
  endloop
endfacet
facet normal -1 0 0
  outer loop
    vertex -4 5 1
    vertex -4 -5 1
    vertex -4 -5 12
  endloop
endfacet
facet normal 0 -1 0
  outer loop
    vertex -4 -5 1
    vertex 4 -5 12
    vertex -4 -5 12
  endloop
endfacet
facet normal 0 -1 0
  outer loop
    vertex -4 -5 1
    vertex 4 -5 1
    vertex 4 -5 12
  endloop
endfacet
facet normal 0 1 0
  outer loop
    vertex 4 5 1
    vertex -4 5 12
    vertex 4 5 12
  endloop
endfacet
facet normal 0 1 0
  outer loop
    vertex 4 5 1
    vertex -4 5 1
    vertex -4 5 12
  endloop
endfacet
facet normal 0 0 -1
  outer loop
    vertex 4 -5 1
    vertex -4 5 1
    vertex 4 5 1
  endloop
endfacet
facet normal 0 0 -1
  outer loop
    vertex 4 -5 1
    vertex -4 -5 1
    vertex -4 5 1
  endloop
endfacet
facet normal 0 0 1
  outer loop
    vertex 4 -5 12
    vertex 4 5 12
    vertex -4 5 12
  endloop
endfacet
facet normal 0 0 1
  outer loop
    vertex 4 -5 12
    vertex -4 5 12
    vertex -4 -5 12
  endloop
endfacet
facet normal 0 0 -1
  outer loop
    vertex -2.4 -5.1 .9
    vertex -3.2 -5.1 .9
    vertex -2.4 5.1 .9
  endloop
endfacet
facet normal 0 0 -1
  outer loop
    vertex -2.4 5.1 .9
    vertex -3.2 -5.1 .9
    vertex -3.2 5.1 .9
  endloop
endfacet
facet normal 0 0 1
  outer loop
    vertex -2.4 -5.1 12.1
    vertex -2.4 5.1 12.1
    vertex -3.2 -5.1 12.1
  endloop
endfacet
facet normal 0 0 1
  outer loop
    vertex -3.2 -5.1 12.1
    vertex -2.4 5.1 12.1
    vertex -3.2 5.1 12.1
  endloop
endfacet
facet normal 0 1 0
  outer loop
    vertex -2.4 5.1 12.1
    vertex -2.4 5.1 .9
    vertex -3.2 5.1 .9
  endloop
endfacet
facet normal 0 1 0
  outer loop
    vertex -2.4 5.1 12.1
    vertex -3.2 5.1 .9
    vertex -3.2 5.1 12.1
  endloop
endfacet
facet normal 0 -1 0
  outer loop
    vertex -2.4 -5.1 .9
    vertex -2.4 -5.1 12.1
    vertex -3.2 -5.1 .9
  endloop
endfacet
facet normal 0 -1 0
  outer loop
    vertex -3.2 -5.1 12.1
    vertex -3.2 -5.1 .9
    vertex -2.4 -5.1 12.1
  endloop
endfacet
facet normal 0 0 -1
  outer loop
    vertex -2.4 -5 1
    vertex -3.2 -5 1
    vertex -2.4 5 1
  endloop
endfacet
facet normal 0 0 -1
  outer loop
    vertex -2.4 5 1
    vertex -3.2 -5 1
    vertex -3.2 5 1
  endloop
endfacet
facet normal 0 0 1
  outer loop
    vertex -2.4 -5 12
    vertex -2.4 5 12
    vertex -3.2 -5 12
  endloop
endfacet
facet normal 0 0 1
  outer loop
    vertex -3.2 -5 12
    vertex -2.4 5 12
    vertex -3.2 5 12
  endloop
endfacet
facet normal 0 1 0
  outer loop
    vertex -2.4 5 12
    vertex -2.4 5 1
    vertex -3.2 5 1
  endloop
endfacet
facet normal 0 1 0
  outer loop
    vertex -2.4 5 12
    vertex -3.2 5 1
    vertex -3.2 5 12
  endloop
endfacet
facet normal 0 -1 0
  outer loop
    vertex -2.4 -5 1
    vertex -2.4 -5 12
    vertex -3.2 -5 1
  endloop
endfacet
facet normal 0 -1 0
  outer loop
    vertex -3.2 -5 12
    vertex -3.2 -5 1
    vertex -2.4 -5 12
  endloop
endfacet
facet normal -1 0 0
  outer loop
    vertex -3.2 5.1 12.1
    vertex -3.2 5 12
    vertex -3.2 -5.1 12.1
  endloop
endfacet
facet normal -1 0 0
  outer loop
    vertex -3.2 5 12
    vertex -3.2 -5 12
    vertex -3.2 -5.1 12.1
  endloop
endfacet
facet normal -1 0 0
  outer loop
    vertex -3.2 -5.1 12.1
    vertex -3.2 -5 12
    vertex -3.2 -5.1 .9
  endloop
endfacet
facet normal -1 0 0
  outer loop
    vertex -3.2 -5 12
    vertex -3.2 -5 1
    vertex -3.2 -5.1 .9
  endloop
endfacet
facet normal -1 0 0
  outer loop
    vertex -3.2 5.1 .9
    vertex -3.2 -5.1 .9
    vertex -3.2 5 1
  endloop
endfacet
facet normal -1 0 0
  outer loop
    vertex -3.2 5 1
    vertex -3.2 -5.1 .9
    vertex -3.2 -5 1
  endloop
endfacet
facet normal -1 0 0
  outer loop
    vertex -3.2 5.1 12.1
    vertex -3.2 5.1 .9
    vertex -3.2 5 12
  endloop
endfacet
facet normal -1 0 0
  outer loop
    vertex -3.2 5 12
    vertex -3.2 5.1 .9
    vertex -3.2 5 1
  endloop
endfacet
facet normal 1 0 0
  outer loop
    vertex -2.4 -5.1 12.1
    vertex -2.4 -5 12
    vertex -2.4 5.1 12.1
  endloop
endfacet
facet normal 1 0 0
  outer loop
    vertex -2.4 -5 12
    vertex -2.4 5 12
    vertex -2.4 5.1 12.1
  endloop
endfacet
facet normal 1 0 0
  outer loop
    vertex -2.4 5.1 12.1
    vertex -2.4 5 12
    vertex -2.4 5.1 .9
  endloop
endfacet
facet normal 1 0 0
  outer loop
    vertex -2.4 5 12
    vertex -2.4 5 1
    vertex -2.4 5.1 .9
  endloop
endfacet
facet normal 1 0 0
  outer loop
    vertex -2.4 -5.1 .9
    vertex -2.4 5.1 .9
    vertex -2.4 -5 1
  endloop
endfacet
facet normal 1 0 0
  outer loop
    vertex -2.4 -5 1
    vertex -2.4 5.1 .9
    vertex -2.4 5 1
  endloop
endfacet
facet normal 1 0 0
  outer loop
    vertex -2.4 -5.1 12.1
    vertex -2.4 -5.1 .9
    vertex -2.4 -5 12
  endloop
endfacet
facet normal 1 0 0
  outer loop
    vertex -2.4 -5 12
    vertex -2.4 -5.1 .9
    vertex -2.4 -5 1
  endloop
endfacet
facet normal 1 0 0
  outer loop
    vertex 12 -6 0
    vertex 12 6 13
    vertex 12 -6 13
  endloop
endfacet
facet normal 1 0 0
  outer loop
    vertex 12 -6 0
    vertex 12 6 0
    vertex 12 6 13
  endloop
endfacet
facet normal -1 0 0
  outer loop
    vertex 4 6 0
    vertex 4 -6 13
    vertex 4 6 13
  endloop
endfacet
facet normal -1 0 0
  outer loop
    vertex 4 6 0
    vertex 4 -6 0
    vertex 4 -6 13
  endloop
endfacet
facet normal 0 -1 0
  outer loop
    vertex 4 -6 0
    vertex 12 -6 13
    vertex 4 -6 13
  endloop
endfacet
facet normal 0 -1 0
  outer loop
    vertex 4 -6 0
    vertex 12 -6 0
    vertex 12 -6 13
  endloop
endfacet
facet normal 0 1 0
  outer loop
    vertex 12 6 0
    vertex 4 6 13
    vertex 12 6 13
  endloop
endfacet
facet normal 0 1 0
  outer loop
    vertex 12 6 0
    vertex 4 6 0
    vertex 4 6 13
  endloop
endfacet
facet normal 0 0 -1
  outer loop
    vertex 12 -6 0
    vertex 4 6 0
    vertex 12 6 0
  endloop
endfacet
facet normal 0 0 -1
  outer loop
    vertex 12 -6 0
    vertex 4 -6 0
    vertex 4 6 0
  endloop
endfacet
facet normal 0 0 1
  outer loop
    vertex 12 -6 13
    vertex 12 6 13
    vertex 4 6 13
  endloop
endfacet
facet normal 0 0 1
  outer loop
    vertex 12 -6 13
    vertex 4 6 13
    vertex 4 -6 13
  endloop
endfacet
facet normal -1 0 0
  outer loop
    vertex -12 6 0
    vertex -12 -6 13
    vertex -12 6 13
  endloop
endfacet
facet normal -1 0 0
  outer loop
    vertex -12 6 0
    vertex -12 -6 0
    vertex -12 -6 13
  endloop
endfacet
facet normal 1 0 0
  outer loop
    vertex -4 -6 0
    vertex -4 6 13
    vertex -4 -6 13
  endloop
endfacet
facet normal 1 0 0
  outer loop
    vertex -4 -6 0
    vertex -4 6 0
    vertex -4 6 13
  endloop
endfacet
facet normal 0 1 0
  outer loop
    vertex -4 6 0
    vertex -12 6 13
    vertex -4 6 13
  endloop
endfacet
facet normal 0 1 0
  outer loop
    vertex -4 6 0
    vertex -12 6 0
    vertex -12 6 13
  endloop
endfacet
facet normal 0 -1 0
  outer loop
    vertex -12 -6 0
    vertex -4 -6 13
    vertex -12 -6 13
  endloop
endfacet
facet normal 0 -1 0
  outer loop
    vertex -12 -6 0
    vertex -4 -6 0
    vertex -4 -6 13
  endloop
endfacet
facet normal 0 0 -1
  outer loop
    vertex -12 6 0
    vertex -4 -6 0
    vertex -12 -6 0
  endloop
endfacet
facet normal 0 0 -1
  outer loop
    vertex -12 6 0
    vertex -4 6 0
    vertex -4 -6 0
  endloop
endfacet
facet normal 0 0 1
  outer loop
    vertex -12 6 13
    vertex -12 -6 13
    vertex -4 -6 13
  endloop
endfacet
facet normal 0 0 1
  outer loop
    vertex -12 6 13
    vertex -4 -6 13
    vertex -4 6 13
  endloop
endfacet
endsolid G-033-M
